<svg width="49" height="49" viewBox="0 0 49 49" fill="none" xmlns="http://www.w3.org/2000/svg">
<rect width="49" height="49" fill="#AFAFAF"/>
<g filter="url(#filter0_d_20_666)">
<rect x="-164" y="-192" width="375" height="812" rx="30" fill="white"/>
<g filter="url(#filter1_d_20_666)">
<rect x="-144" y="-44" width="335" height="168" rx="5" fill="white"/>
</g>
<circle cx="24.5" cy="24.5" r="24.5" fill="black"/>
<path d="M28.0054 28.9976L24.0054 24.9976M24.0054 24.9976L20.0054 28.9976M24.0054 24.9976V33.9976" stroke="#FDCD03" stroke-width="2" stroke-linecap="round" stroke-linejoin="round"/>
<path d="M32.3953 31.3875C33.3707 30.8558 34.1412 30.0144 34.5852 28.9962C35.0292 27.9779 35.1215 26.8408 34.8475 25.7642C34.5735 24.6877 33.9488 23.7331 33.072 23.051C32.1952 22.3689 31.1162 21.9983 30.0053 21.9975H28.7453C28.4426 20.8268 27.8785 19.7399 27.0953 18.8185C26.3121 17.8972 25.3302 17.1654 24.2234 16.6781C23.1167 16.1909 21.9139 15.9609 20.7054 16.0054C19.497 16.0499 18.3144 16.3678 17.2465 16.9352C16.1786 17.5026 15.2532 18.3046 14.54 19.2811C13.8267 20.2576 13.344 21.3831 13.1283 22.5729C12.9126 23.7628 12.9694 24.9861 13.2945 26.1508C13.6197 27.3155 14.2046 28.3914 15.0053 29.2975" stroke="#FDCD03" stroke-width="2" stroke-linecap="round" stroke-linejoin="round"/>
<path d="M28.0054 28.9976L24.0054 24.9976L20.0054 28.9976" stroke="#FDCD03" stroke-width="2" stroke-linecap="round" stroke-linejoin="round"/>
</g>
<defs>
<filter id="filter0_d_20_666" x="-166" y="-194" width="379" height="816" filterUnits="userSpaceOnUse" color-interpolation-filters="sRGB">
<feFlood flood-opacity="0" result="BackgroundImageFix"/>
<feColorMatrix in="SourceAlpha" type="matrix" values="0 0 0 0 0 0 0 0 0 0 0 0 0 0 0 0 0 0 127 0" result="hardAlpha"/>
<feOffset/>
<feGaussianBlur stdDeviation="1"/>
<feColorMatrix type="matrix" values="0 0 0 0 0 0 0 0 0 0 0 0 0 0 0 0 0 0 0.25 0"/>
<feBlend mode="normal" in2="BackgroundImageFix" result="effect1_dropShadow_20_666"/>
<feBlend mode="normal" in="SourceGraphic" in2="effect1_dropShadow_20_666" result="shape"/>
</filter>
<filter id="filter1_d_20_666" x="-144" y="-44" width="339" height="172" filterUnits="userSpaceOnUse" color-interpolation-filters="sRGB">
<feFlood flood-opacity="0" result="BackgroundImageFix"/>
<feColorMatrix in="SourceAlpha" type="matrix" values="0 0 0 0 0 0 0 0 0 0 0 0 0 0 0 0 0 0 127 0" result="hardAlpha"/>
<feOffset dx="2" dy="2"/>
<feGaussianBlur stdDeviation="1"/>
<feComposite in2="hardAlpha" operator="out"/>
<feColorMatrix type="matrix" values="0 0 0 0 0 0 0 0 0 0 0 0 0 0 0 0 0 0 0.08 0"/>
<feBlend mode="normal" in2="BackgroundImageFix" result="effect1_dropShadow_20_666"/>
<feBlend mode="normal" in="SourceGraphic" in2="effect1_dropShadow_20_666" result="shape"/>
</filter>
</defs>
</svg>
