<svg width="15" height="13" viewBox="0 0 15 13" fill="none" xmlns="http://www.w3.org/2000/svg">
<g clip-path="url(#clip0_8_520)">
<path d="M13.982 8.43834C12.7516 7.8487 10.6554 7.58638 10.2004 7.53531C9.51553 6.78316 8.81678 6.16798 8.06232 5.66191C7.85107 5.52031 7.605 5.43441 7.35428 5.4112C6.45821 5.32763 5.45071 5.33227 4.27607 5.43209C4.09732 5.44834 3.9325 5.49013 3.79089 5.55513C3.32892 5.75013 2.15196 6.32816 1.07946 7.52602H0.819459C0.371424 7.52602 0.00928068 7.88816 0.00928068 8.33388V10.8271C0.00928068 11.2658 0.366781 11.6233 0.805531 11.6233H1.77125C1.88035 12.3639 2.52339 12.9373 3.29875 12.9373C4.06946 12.9373 4.70785 12.3662 4.81696 11.6233H10.0425C10.1516 12.3639 10.7946 12.9373 11.57 12.9373C12.3407 12.9373 12.9791 12.3662 13.0882 11.6233H13.78C14.1955 11.6233 14.567 11.3587 14.7016 10.9617L14.7712 10.7551C15.0127 10.0239 14.6737 8.77031 13.982 8.43834ZM14.3186 9.64548H14.293C14.0052 9.64548 13.773 9.41334 13.773 9.12548V8.83763C13.7777 8.83995 13.7823 8.84227 13.787 8.84459C14.033 8.96066 14.2187 9.28566 14.3186 9.64548ZM7.31482 5.85691C7.49124 5.87316 7.66535 5.93584 7.81392 6.03566C8.4291 6.44888 9.00946 6.9387 9.57589 7.5237H5.31607V5.81513C6.04732 5.78727 6.70892 5.79888 7.31482 5.85691ZM3.97428 5.9637C4.07642 5.91727 4.18785 5.88941 4.31553 5.87781C4.50357 5.86156 4.68696 5.84995 4.86571 5.83834V7.5237H1.69928C2.66035 6.56263 3.65857 6.09602 3.97428 5.9637ZM0.459638 8.94209H0.624459C0.756781 8.94209 0.865888 9.04888 0.865888 9.18352C0.865888 9.2462 0.840352 9.30656 0.796245 9.35298C0.752138 9.39709 0.689459 9.42263 0.626781 9.42263H0.459638V8.94209ZM3.29875 12.4846C2.69517 12.4846 2.20303 11.9971 2.20303 11.3958C2.20303 10.7946 2.69517 10.3071 3.29875 10.3071C3.89767 10.3071 4.38517 10.7946 4.3875 11.3935C4.3875 11.3935 4.3875 11.3935 4.3875 11.3958C4.3875 11.3958 4.3875 11.3958 4.3875 11.3982C4.38517 11.9971 3.89767 12.4846 3.29875 12.4846ZM11.5677 12.4846C10.9641 12.4846 10.4743 11.9971 10.472 11.3982V11.3958V11.3935C10.4743 10.7946 10.9641 10.3071 11.5677 10.3071C12.1689 10.3071 12.6564 10.7946 12.6564 11.3958C12.6564 11.9971 12.1689 12.4846 11.5677 12.4846ZM14.3441 10.6112L14.2745 10.8178C14.2025 11.0314 14.0029 11.173 13.78 11.173H13.0882C12.9791 10.4324 12.3407 9.86138 11.57 9.86138C10.7946 9.86138 10.1539 10.4324 10.0425 11.173H4.81696C4.70785 10.4324 4.06946 9.86138 3.29875 9.86138C2.52339 9.86138 1.88267 10.4324 1.77125 11.173H0.805531C0.615174 11.173 0.459638 11.0174 0.459638 10.8271V9.87066H0.624459C0.810174 9.87066 0.981959 9.7987 1.11196 9.6687C1.24196 9.5387 1.31392 9.36691 1.31392 9.1812C1.31392 8.80048 1.00517 8.49173 0.624459 8.49173H0.459638V8.33156C0.459638 8.13423 0.622138 7.97173 0.821781 7.97173H1.17696C1.17928 7.97173 1.1816 7.97173 1.18392 7.97173H10.0936C10.2816 7.99263 12.0668 8.19459 13.3296 8.64959V9.12084C13.3296 9.65477 13.7637 10.0912 14.3 10.0912H14.4021C14.4068 10.2839 14.3929 10.4649 14.3441 10.6112Z" fill="#3A3B3D"/>
<path d="M3.29875 10.9827C3.06661 10.9827 2.87625 11.1684 2.87625 11.3959C2.87625 11.6234 3.06661 11.8114 3.29875 11.8114C3.52625 11.8114 3.71197 11.6257 3.71197 11.3959C3.71197 11.1684 3.52625 10.9827 3.29875 10.9827Z" fill="#3A3B3D"/>
<path d="M11.5677 10.9827C11.3355 10.9827 11.1452 11.1684 11.1452 11.3959C11.1452 11.6234 11.3332 11.8114 11.5677 11.8114C11.7952 11.8114 11.9832 11.6257 11.9832 11.3959C11.9832 11.1684 11.7975 10.9827 11.5677 10.9827Z" fill="#3A3B3D"/>
<path d="M7.88357 8.34082H7.08267C6.95964 8.34082 6.85749 8.44064 6.85749 8.566C6.85749 8.69136 6.95732 8.79118 7.08267 8.79118H7.88357C8.0066 8.79118 8.10874 8.69136 8.10874 8.566C8.10874 8.44064 8.0066 8.34082 7.88357 8.34082Z" fill="#3A3B3D"/>
<path d="M3.95107 8.34082H3.15017C3.02714 8.34082 2.92499 8.44064 2.92499 8.566C2.92499 8.69136 3.02482 8.79118 3.15017 8.79118H3.95107C4.0741 8.79118 4.17624 8.69136 4.17624 8.566C4.17624 8.44064 4.07642 8.34082 3.95107 8.34082Z" fill="#3A3B3D"/>
<path d="M9.54571 5.17673H13.6407C13.9239 5.17673 14.1793 5.03048 14.3209 4.78441C14.4625 4.53833 14.4625 4.24583 14.3209 3.99976L12.2711 0.457263C12.1295 0.211191 11.8741 0.0649414 11.5909 0.0649414C11.3077 0.0649414 11.0523 0.211191 10.9107 0.457263L8.86321 3.99976C8.7216 4.24583 8.7216 4.53833 8.86321 4.78441C9.00714 5.03048 9.26017 5.17673 9.54571 5.17673ZM9.25553 4.22494L11.303 0.682441C11.3634 0.577977 11.4725 0.515298 11.5932 0.515298C11.7139 0.515298 11.823 0.577977 11.8834 0.682441L13.9309 4.22494C13.9912 4.32941 13.9912 4.45476 13.9309 4.56155C13.8705 4.66601 13.7614 4.72869 13.6407 4.72869H9.54571C9.42499 4.72869 9.31589 4.66601 9.25553 4.56155C9.19285 4.45476 9.19285 4.32941 9.25553 4.22494Z" fill="#3A3B3D"/>
<path d="M11.5932 3.34297C11.7162 3.34297 11.8184 3.24314 11.8184 3.11779V1.72957C11.8184 1.60654 11.7186 1.50439 11.5932 1.50439C11.4702 1.50439 11.368 1.60422 11.368 1.72957V3.11779C11.368 3.24314 11.4678 3.34297 11.5932 3.34297Z" fill="#3A3B3D"/>
<path d="M11.5932 4.24124C11.7162 4.24124 11.8184 4.14142 11.8184 4.01606V3.89071C11.8184 3.76767 11.7186 3.66553 11.5932 3.66553C11.4702 3.66553 11.368 3.76535 11.368 3.89071V4.01606C11.368 4.14142 11.4678 4.24124 11.5932 4.24124Z" fill="#3A3B3D"/>
</g>
<defs>
<clipPath id="clip0_8_520">
<rect width="14.8571" height="13" fill="white"/>
</clipPath>
</defs>
</svg>
