<svg width="22" height="22" viewBox="0 0 22 22" fill="none" xmlns="http://www.w3.org/2000/svg">
<circle cx="3" cy="3" r="3" transform="matrix(-1 0 0 1 14 8)" stroke="white" stroke-width="1.5"/>
<path d="M15.5001 3.9375L15.8751 3.28798L15.8751 3.28798L15.5001 3.9375ZM15.5001 18.0621L15.1251 17.4126L15.5001 18.0621ZM6.50003 18.0621L6.12503 18.7117H6.12503L6.50003 18.0621ZM6.50004 3.9375L6.87504 4.58702L6.50004 3.9375ZM7.92297 2.01508L7.19228 1.84601L7.92297 2.01508ZM4.31187 17.7402L4.13969 17.0102L4.31187 17.7402ZM3.40299 17.503L3.97253 17.015L3.40299 17.503ZM8.53926 20.695L8.72324 19.9679L8.53926 20.695ZM7.92303 19.9848L8.65374 19.8158L7.92303 19.9848ZM14.0771 19.9848L13.3463 19.8158L14.0771 19.9848ZM13.4608 20.695L13.6448 21.422L13.4608 20.695ZM18.597 17.503L18.0275 17.015L18.597 17.503ZM20.4437 7.70289L21.1518 7.45569L20.4437 7.70289ZM20.0936 8.68352L19.6166 8.10469L20.0936 8.68352ZM17.688 4.2595L17.5159 3.52952L17.688 4.2595ZM20.0936 13.3165L19.6166 13.8953L20.0936 13.3165ZM20.4437 14.2971L19.7356 14.0499L20.4437 14.2971ZM14.0772 2.01511L13.3465 2.18418L14.0772 2.01511ZM13.3465 2.18418C13.5723 3.16005 14.1879 4.04592 15.1251 4.58702L15.8751 3.28798C15.3127 2.96329 14.9439 2.43381 14.8079 1.84603L13.3465 2.18418ZM15.1251 4.58702C15.986 5.08408 16.9638 5.2008 17.8601 4.98949L17.5159 3.52952C16.9767 3.65663 16.3922 3.5865 15.8751 3.28798L15.1251 4.58702ZM21.1518 7.45569C20.7062 6.17937 20.0271 5.01337 19.1663 4.00871L18.0272 4.98471C18.7687 5.85004 19.3527 6.85328 19.7356 7.95008L21.1518 7.45569ZM19.75 11C19.75 10.3006 20.0682 9.67623 20.5705 9.26236L19.6166 8.10469C18.7833 8.79128 18.25 9.83367 18.25 11H19.75ZM20.5705 12.7376C20.0682 12.3238 19.75 11.6994 19.75 11H18.25C18.25 12.1663 18.7833 13.2087 19.6166 13.8953L20.5705 12.7376ZM19.1666 17.991C20.0273 16.9864 20.7063 15.8205 21.1518 14.5443L19.7356 14.0499C19.3528 15.1466 18.7688 16.1497 18.0275 17.015L19.1666 17.991ZM15.8751 18.7117C16.3922 18.4131 16.9768 18.343 17.516 18.4702L17.8603 17.0102C16.964 16.7988 15.9861 16.9155 15.1251 17.4126L15.8751 18.7117ZM14.8078 20.1538C14.9437 19.566 15.3126 19.0364 15.8751 18.7117L15.1251 17.4126C14.1877 17.9538 13.5721 18.8398 13.3463 19.8158L14.8078 20.1538ZM11 21.75C11.9117 21.75 12.7979 21.6363 13.6448 21.422L13.2769 19.9679C12.5493 20.152 11.7866 20.25 11 20.25V21.75ZM8.35528 21.4221C9.20215 21.6363 10.0883 21.75 11 21.75V20.25C10.2134 20.25 9.4508 20.152 8.72324 19.9679L8.35528 21.4221ZM6.12503 18.7117C6.68748 19.0364 7.05636 19.566 7.19232 20.1538L8.65374 19.8158C8.42801 18.8398 7.81236 17.9538 6.87503 17.4126L6.12503 18.7117ZM4.48405 18.4702C5.02326 18.343 5.60791 18.4131 6.12503 18.7117L6.87503 17.4126C6.01399 16.9155 5.03605 16.7988 4.13969 17.0102L4.48405 18.4702ZM0.848204 14.5443C1.29373 15.8205 1.97272 16.9864 2.83345 17.991L3.97253 17.015C3.23117 16.1498 2.64724 15.1466 2.26439 14.0499L0.848204 14.5443ZM2.25002 11C2.25002 11.6994 1.93183 12.3238 1.42951 12.7376L2.38335 13.8953C3.21666 13.2087 3.75002 12.1663 3.75002 11H2.25002ZM1.42952 9.26235C1.93183 9.67622 2.25002 10.3006 2.25002 11H3.75002C3.75002 9.83366 3.21667 8.79126 2.38335 8.10468L1.42952 9.26235ZM2.83374 4.00867C1.97287 5.01334 1.29378 6.17934 0.848206 7.45567L2.26439 7.95007C2.64729 6.85326 3.2313 5.85001 3.97278 4.98468L2.83374 4.00867ZM6.12504 3.28798C5.60796 3.58651 5.02336 3.65664 4.48419 3.5295L4.13992 4.98946C5.03622 5.20081 6.01407 5.0841 6.87504 4.58702L6.12504 3.28798ZM7.19228 1.84601C7.05628 2.43379 6.68742 2.96329 6.12504 3.28798L6.87504 4.58702C7.81226 4.04591 8.42787 3.16003 8.65367 2.18415L7.19228 1.84601ZM11 0.25C10.0883 0.25 9.20209 0.36366 8.3552 0.577959L8.72317 2.03213C9.45075 1.84802 10.2134 1.75 11 1.75V0.25ZM13.645 0.578005C12.798 0.363676 11.9118 0.25 11 0.25V1.75C11.7867 1.75 12.5493 1.84803 13.277 2.03217L13.645 0.578005ZM8.65367 2.18415C8.66928 2.11668 8.69573 2.06909 8.71625 2.04413C8.73388 2.02269 8.73702 2.02862 8.72317 2.03213L8.3552 0.577959C7.664 0.752863 7.30709 1.3498 7.19228 1.84601L8.65367 2.18415ZM2.38335 8.10468C2.32246 8.05451 2.28707 8.00024 2.27288 7.96394C2.26094 7.93341 2.26973 7.93478 2.26439 7.95007L0.848206 7.45567C0.582192 8.21766 0.994347 8.9038 1.42952 9.26235L2.38335 8.10468ZM4.13969 17.0102C4.07246 17.0261 4.01819 17.0235 3.98673 17.0162C3.95967 17.0099 3.96339 17.0044 3.97253 17.015L2.83345 17.991C3.29651 18.5314 3.98848 18.5871 4.48405 18.4702L4.13969 17.0102ZM8.72324 19.9679C8.73709 19.9714 8.73395 19.9773 8.71632 19.9559C8.6958 19.9309 8.66935 19.8833 8.65374 19.8158L7.19232 20.1538C7.3071 20.6501 7.66401 21.2471 8.35528 21.4221L8.72324 19.9679ZM13.3463 19.8158C13.3307 19.8833 13.3043 19.9309 13.2838 19.9559C13.2661 19.9773 13.263 19.9714 13.2769 19.9679L13.6448 21.422C14.3361 21.2471 14.693 20.6501 14.8078 20.1538L13.3463 19.8158ZM18.0275 17.015C18.0366 17.0043 18.0403 17.0098 18.0133 17.0161C17.9818 17.0235 17.9275 17.0261 17.8603 17.0102L17.516 18.4702C18.0116 18.587 18.7035 18.5314 19.1666 17.991L18.0275 17.015ZM19.7356 7.95008C19.7303 7.93479 19.7391 7.93343 19.7271 7.96395C19.7129 8.00025 19.6775 8.05452 19.6166 8.10469L20.5705 9.26236C21.0057 8.90381 21.4178 8.21767 21.1518 7.45569L19.7356 7.95008ZM2.26439 14.0499C2.26972 14.0652 2.26093 14.0666 2.27287 14.0361C2.28707 13.9998 2.32246 13.9455 2.38335 13.8953L1.42951 12.7376C0.994346 13.0962 0.582191 13.7823 0.848204 14.5443L2.26439 14.0499ZM17.8601 4.98949C17.9273 4.97364 17.9816 4.97624 18.013 4.98357C18.0401 4.98987 18.0364 4.99537 18.0272 4.98471L19.1663 4.00871C18.7033 3.46835 18.0114 3.41269 17.5159 3.52952L17.8601 4.98949ZM3.97278 4.98468C3.96364 4.99534 3.95992 4.98984 3.98698 4.98354C4.01843 4.97621 4.0727 4.97361 4.13992 4.98946L4.48419 3.5295C3.98865 3.41265 3.29677 3.4683 2.83374 4.00867L3.97278 4.98468ZM19.6166 13.8953C19.6775 13.9455 19.7129 13.9997 19.7271 14.036C19.7391 14.0666 19.7303 14.0652 19.7356 14.0499L21.1518 14.5443C21.4178 13.7823 21.0057 13.0962 20.5705 12.7376L19.6166 13.8953ZM14.8079 1.84603C14.693 1.34983 14.3361 0.752915 13.645 0.578005L13.277 2.03217C13.2631 2.02866 13.2663 2.02273 13.2839 2.04417C13.3044 2.06913 13.3309 2.11672 13.3465 2.18418L14.8079 1.84603Z" fill="white"/>
</svg>
