<svg width="24" height="26" viewBox="0 0 24 26" fill="none" xmlns="http://www.w3.org/2000/svg">
<path d="M4 16.5961H3.25H4ZM6.73291 19.7944L6.83592 19.0515H6.83592L6.73291 19.7944ZM16.9193 19.7944L16.8163 19.0515H16.8162L16.9193 19.7944ZM4.46647 14.8982L3.82231 14.514L4.46647 14.8982ZM6.48914 9.79789C6.48914 6.85037 8.87857 4.46094 11.8261 4.46094V2.96094C8.05015 2.96094 4.98914 6.02195 4.98914 9.79789H6.48914ZM6.48914 11.8904V9.79789H4.98914V11.8904H6.48914ZM4.75 16.5961C4.75 16.1146 4.88171 15.6662 5.11062 15.2823L3.82231 14.514C3.4587 15.1237 3.25 15.8367 3.25 16.5961H4.75ZM6.83592 19.0515C5.63629 18.8851 4.75 17.8422 4.75 16.5961H3.25C3.25 18.5557 4.65411 20.2633 6.6299 20.5373L6.83592 19.0515ZM11.8261 19.4829C10.3341 19.4829 8.40652 19.2693 6.83592 19.0515L6.6299 20.5373C8.21268 20.7567 10.2254 20.9829 11.8261 20.9829V19.4829ZM16.8162 19.0515C15.2457 19.2693 13.3181 19.4829 11.8261 19.4829V20.9829C13.4268 20.9829 15.4395 20.7567 17.0223 20.5373L16.8162 19.0515ZM18.9022 16.5961C18.9022 17.8422 18.0159 18.8851 16.8163 19.0515L17.0223 20.5373C18.9981 20.2633 20.4022 18.5557 20.4022 16.5961H18.9022ZM18.5416 15.2823C18.7705 15.6662 18.9022 16.1146 18.9022 16.5961H20.4022C20.4022 15.8367 20.1935 15.1238 19.8299 14.514L18.5416 15.2823ZM17.1631 9.7979V11.8904H18.6631V9.7979H17.1631ZM11.8261 4.46094C14.7736 4.46094 17.1631 6.85037 17.1631 9.7979H18.6631C18.6631 6.02195 15.602 2.96094 11.8261 2.96094V4.46094ZM19.8299 14.514C19.521 13.9961 19.2404 13.581 19.0091 13.1176C18.7876 12.6738 18.6631 12.2779 18.6631 11.8904H17.1631C17.1631 12.6033 17.3931 13.2387 17.667 13.7875C17.9311 14.3166 18.2869 14.8552 18.5416 15.2823L19.8299 14.514ZM4.98914 11.8904C4.98914 12.2779 4.86462 12.6738 4.64311 13.1176C4.41176 13.581 4.13121 13.9961 3.82231 14.514L5.11062 15.2823C5.36531 14.8552 5.7211 14.3166 5.98519 13.7875C6.25912 13.2387 6.48914 12.6033 6.48914 11.8904H4.98914Z" fill="white"/>
<path d="M14 22.5449C13.5326 23.2478 12.7335 23.7111 11.8261 23.7111C10.9187 23.7111 10.1195 23.2478 9.65218 22.5449" stroke="white" stroke-width="1.5" stroke-linecap="round"/>
<circle cx="17" cy="4.28906" r="4" fill="#F83332"/>
</svg>
