<svg width="18" height="23" viewBox="0 0 18 23" fill="none" xmlns="http://www.w3.org/2000/svg">
<path d="M1 14.5961H0.25H1ZM3.73291 17.7944L3.83592 17.0515H3.83592L3.73291 17.7944ZM13.9193 17.7944L13.8163 17.0515H13.8162L13.9193 17.7944ZM1.46647 12.8982L0.822315 12.514L1.46647 12.8982ZM3.48914 7.79789C3.48914 4.85037 5.87857 2.46094 8.82609 2.46094V0.960938C5.05015 0.960938 1.98914 4.02195 1.98914 7.79789H3.48914ZM3.48914 9.89042V7.79789H1.98914V9.89042H3.48914ZM1.75 14.5961C1.75 14.1146 1.88171 13.6662 2.11062 13.2823L0.822315 12.514C0.458701 13.1237 0.25 13.8367 0.25 14.5961H1.75ZM3.83592 17.0515C2.63629 16.8851 1.75 15.8422 1.75 14.5961H0.25C0.25 16.5557 1.65411 18.2633 3.6299 18.5373L3.83592 17.0515ZM8.82609 17.4829C7.33411 17.4829 5.40652 17.2693 3.83592 17.0515L3.6299 18.5373C5.21268 18.7567 7.22537 18.9829 8.82609 18.9829V17.4829ZM13.8162 17.0515C12.2457 17.2693 10.3181 17.4829 8.82609 17.4829V18.9829C10.4268 18.9829 12.4395 18.7567 14.0223 18.5373L13.8162 17.0515ZM15.9022 14.5961C15.9022 15.8422 15.0159 16.8851 13.8163 17.0515L14.0223 18.5373C15.9981 18.2633 17.4022 16.5557 17.4022 14.5961H15.9022ZM15.5416 13.2823C15.7705 13.6662 15.9022 14.1146 15.9022 14.5961H17.4022C17.4022 13.8367 17.1935 13.1238 16.8299 12.514L15.5416 13.2823ZM14.1631 7.7979V9.89044H15.6631V7.7979H14.1631ZM8.82609 2.46094C11.7736 2.46094 14.1631 4.85037 14.1631 7.7979H15.6631C15.6631 4.02195 12.602 0.960938 8.82609 0.960938V2.46094ZM16.8299 12.514C16.521 11.9961 16.2404 11.581 16.0091 11.1176C15.7876 10.6738 15.6631 10.2779 15.6631 9.89044H14.1631C14.1631 10.6033 14.3931 11.2387 14.667 11.7875C14.9311 12.3166 15.2869 12.8552 15.5416 13.2823L16.8299 12.514ZM1.98914 9.89042C1.98914 10.2779 1.86462 10.6738 1.64311 11.1176C1.41176 11.581 1.13121 11.9961 0.822315 12.514L2.11062 13.2823C2.36531 12.8552 2.7211 12.3166 2.98519 11.7875C3.25912 11.2387 3.48914 10.6033 3.48914 9.89042H1.98914Z" fill="white"/>
<path d="M11 20.5449C10.5326 21.2478 9.73347 21.7111 8.82609 21.7111C7.91871 21.7111 7.11954 21.2478 6.65218 20.5449" stroke="white" stroke-width="1.5" stroke-linecap="round"/>
</svg>
