<svg width="18" height="18" viewBox="0 0 18 18" fill="none" xmlns="http://www.w3.org/2000/svg">
<path d="M2.01651 18.0014C1.75076 18.0066 1.48659 17.9574 1.24064 17.8566C0.994676 17.7558 0.77197 17.6056 0.586338 17.4153C0.396086 17.2297 0.245968 17.0071 0.145176 16.7611C0.0443846 16.5152 -0.00487616 16.2511 0.000400849 15.9854V2.01637C-0.0049951 1.7506 0.0441334 1.48659 0.144932 1.24062C0.245731 0.994641 0.39599 0.77188 0.586338 0.586321C0.77197 0.396069 0.994676 0.24595 1.24064 0.145159C1.48659 0.044367 1.75076 -0.00489372 2.01651 0.000383289H15.9865C16.2522 -0.00477506 16.5162 0.044496 16.7621 0.145281C17.0081 0.246065 17.2307 0.396165 17.4164 0.586321C17.6063 0.772146 17.7562 0.994932 17.8568 1.24086C17.9575 1.48679 18.0066 1.75071 18.0014 2.01637V15.9854C18.0065 16.251 17.9572 16.5148 17.8566 16.7608C17.756 17.0067 17.6062 17.2294 17.4164 17.4153C17.2307 17.6055 17.0081 17.7556 16.7621 17.8563C16.5162 17.9571 16.2522 18.0065 15.9865 18.0014H2.01651ZM2.01651 15.9854H15.9865V2.01637H2.01651V15.9854ZM9.03751 10.1094L7.07242 12.0744L6.0004 11.0014L7.96549 9.03639L6.0004 7.07131L7.07242 5.99941L9.03751 7.96437L11.0375 5.99941L12.1083 7.07131L10.1083 9.03639L12.1083 11.0014L11.0375 12.0734L9.03751 10.1094Z" fill="#BC0000"/>
</svg>
