<svg width="14" height="7" viewBox="0 0 14 7" fill="none" xmlns="http://www.w3.org/2000/svg">
<g clip-path="url(#clip0_8_482)">
<path d="M9.71765 5.70706H4.34824C4.23294 5.70706 4.15059 5.60824 4.15059 5.50941C4.15059 5.41059 4.24941 5.31177 4.34824 5.31177H9.71765C9.83294 5.31177 9.9153 5.41059 9.9153 5.50941C9.9153 5.60824 9.83294 5.70706 9.71765 5.70706Z" fill="#3A3B3D"/>
<path d="M13.2753 5.36131H12.5341C12.4188 5.36131 12.3365 5.26249 12.3365 5.16367C12.3365 5.06484 12.4353 4.96602 12.5341 4.96602H13.2588C13.3082 4.94955 13.4071 4.8672 13.4235 4.78484L13.44 3.54955C13.4729 3.3519 13.2918 3.25308 13.2588 3.25308L9.99765 2.89072C9.78353 2.87425 9.48706 2.75896 9.33883 2.54484L7.93883 0.700137C7.87294 0.601313 7.75765 0.551901 7.64236 0.551901H4.15059C4.05177 0.551901 3.95294 0.584843 3.88706 0.650725L2.47059 2.3472C2.32236 2.5119 2.14118 2.61072 1.94353 2.64367L0.708237 2.7919C0.609414 2.80837 0.527061 2.89072 0.527061 2.98955V4.73543C0.527061 4.85072 0.625884 4.93308 0.724708 4.93308H1.53177C1.64706 4.93308 1.72941 5.0319 1.72941 5.13072C1.72941 5.22955 1.63059 5.32837 1.53177 5.32837H0.724708C0.378826 5.32837 0.115296 5.04837 0.115296 4.71896V2.97308C0.115296 2.66014 0.345884 2.39661 0.658826 2.36367L1.89412 2.21543C1.99294 2.19896 2.10824 2.13308 2.17412 2.05072L3.59059 0.370725C3.73883 0.22249 3.93647 0.140137 4.15059 0.140137H7.64236C7.88941 0.140137 8.12 0.255431 8.26824 0.453078L9.66824 2.28131C9.73412 2.36367 9.89883 2.44602 10.0471 2.46249L13.3247 2.82484C13.4729 2.84131 13.6212 2.94014 13.7365 3.08837C13.8518 3.23661 13.8847 3.40131 13.8682 3.58249L13.8353 4.81778C13.8024 5.13072 13.4729 5.36131 13.2753 5.36131Z" fill="#3A3B3D"/>
<path d="M8.38353 2.93997H3.40941C3.29412 2.93997 3.21176 2.84115 3.21176 2.74232C3.21176 2.6435 3.31059 2.54468 3.40941 2.54468H8.4C8.51529 2.54468 8.59765 2.6435 8.59765 2.74232C8.59765 2.84115 8.49882 2.93997 8.38353 2.93997Z" fill="#3A3B3D"/>
<path d="M11.0188 6.86018C10.1953 6.86018 9.50353 6.18488 9.50353 5.34488C9.50353 4.50488 10.1788 3.82959 11.0188 3.82959C11.8588 3.82959 12.5341 4.50488 12.5341 5.34488C12.5341 6.18488 11.8588 6.86018 11.0188 6.86018ZM11.0188 4.25782C10.4094 4.25782 9.9153 4.75194 9.9153 5.36135C9.9153 5.97077 10.4094 6.46488 11.0188 6.46488C11.6282 6.46488 12.1224 5.97077 12.1224 5.36135C12.1224 4.75194 11.6282 4.25782 11.0188 4.25782Z" fill="#3A3B3D"/>
<path d="M3.03059 6.86018C2.20706 6.86018 1.5153 6.18488 1.5153 5.34488C1.5153 4.50488 2.19059 3.82959 3.03059 3.82959C3.87059 3.82959 4.54588 4.50488 4.54588 5.34488C4.54588 6.18488 3.87059 6.86018 3.03059 6.86018ZM3.03059 4.25782C2.42118 4.25782 1.92706 4.75194 1.92706 5.36135C1.92706 5.97077 2.42118 6.46488 3.03059 6.46488C3.64 6.46488 4.13412 5.97077 4.13412 5.36135C4.13412 4.75194 3.64 4.25782 3.03059 4.25782Z" fill="#3A3B3D"/>
</g>
<defs>
<clipPath id="clip0_8_482">
<rect width="14" height="6.91765" fill="white" transform="translate(0 0.0412598)"/>
</clipPath>
</defs>
</svg>
