<svg width="10" height="11" viewBox="0 0 10 11" fill="none" xmlns="http://www.w3.org/2000/svg">
<g clip-path="url(#clip0_8_467)">
<path d="M8.7892 2.34372C8.97769 2.04578 9.16673 1.74811 9.35399 1.44948C9.50317 1.2118 9.46742 0.858105 9.51728 0.558105C9.24837 0.68701 8.97701 0.811393 8.71235 0.948653C8.6555 0.978105 8.62427 1.05578 8.57947 1.10961C8.42276 1.29797 8.26564 1.48674 8.10879 1.67509C7.25865 0.986188 6.17687 0.572352 5.00002 0.572352C2.27249 0.572352 0.0534439 2.79126 0.0534439 5.51906C0.0534439 8.2466 2.27249 10.4656 5.00002 10.4656C7.72755 10.4656 9.94659 8.24674 9.94659 5.5192C9.94659 4.31126 9.51084 3.20358 8.7892 2.34372ZM5.00002 9.60715C2.74605 9.60715 0.912074 7.77345 0.912074 5.5192C0.912074 3.26495 2.74605 1.43098 5.00002 1.43098C5.96838 1.43098 6.85865 1.77016 7.55974 2.33495C6.61262 3.4729 5.65728 4.62085 4.66975 5.80715C4.22892 5.30386 3.85879 4.88715 3.49522 4.46482C3.12605 4.03578 2.69536 3.84016 2.22961 4.26879C1.77769 4.68468 1.9092 5.14372 2.27029 5.56906C2.82988 6.22811 3.38098 6.89454 3.94522 7.54961C4.4592 8.14632 5.06933 8.12221 5.49618 7.46578C6.43728 6.01852 7.37509 4.5692 8.30207 3.11304C8.79564 3.78865 9.08797 4.6203 9.08797 5.5192C9.08797 7.77345 7.25427 9.60715 5.00002 9.60715Z" fill="#3A3B3D"/>
</g>
<defs>
<clipPath id="clip0_8_467">
<rect width="10" height="10" fill="white" transform="translate(0 0.5)"/>
</clipPath>
</defs>
</svg>
