<svg width="33" height="33" viewBox="0 0 33 33" fill="none" xmlns="http://www.w3.org/2000/svg">
<path fill-rule="evenodd" clip-rule="evenodd" d="M3.57567 22.0489L5.56883 24.0421C6.90352 23.1578 8.71949 23.3037 9.89543 24.4796C11.0714 25.6556 11.2172 27.4715 10.3329 28.8062L12.3261 30.7994C12.8631 31.3363 13.7337 31.3363 14.2707 30.7994L19.132 25.938L17.1875 23.9935C16.6505 23.4565 16.6505 22.5859 17.1875 22.0489C17.7244 21.512 18.595 21.512 19.132 22.0489L21.0766 23.9935L30.7993 14.2708C31.3362 13.7338 31.3362 12.8632 30.7993 12.3262L28.8061 10.333C27.4714 11.2173 25.6555 11.0715 24.4795 9.89553C23.3036 8.71959 23.1577 6.90362 24.042 5.56893L22.0488 3.57577C21.5119 3.0388 20.6413 3.0388 20.1043 3.57577L10.3816 13.2985L12.3261 15.243C12.8631 15.78 12.8631 16.6506 12.3261 17.1876C11.7891 17.7245 10.9185 17.7245 10.3816 17.1876L8.43702 15.243L3.57567 20.1044C3.03869 20.6414 3.03869 21.512 3.57567 22.0489ZM13.2984 20.1044C12.7614 19.5674 12.7614 18.6968 13.2984 18.1598C13.8354 17.6229 14.706 17.6229 15.2429 18.1598L16.2152 19.1321C16.7522 19.6691 16.7522 20.5397 16.2152 21.0767C15.6782 21.6136 14.8076 21.6136 14.2707 21.0767L13.2984 20.1044Z" fill="#C8C7CC"/>
</svg>
