<svg width="26" height="26" viewBox="0 0 26 26" fill="none" xmlns="http://www.w3.org/2000/svg">
<path d="M10.9581 14.1134C10.9581 14.8507 10.3605 15.4484 9.62319 15.4484C8.88593 15.4484 8.28827 14.8508 8.28827 14.1134C8.28827 13.3762 8.88593 12.7784 9.62319 12.7784C10.3605 12.7785 10.9581 13.3762 10.9581 14.1134ZM16.3768 12.7785C15.6396 12.7785 15.0419 13.3762 15.0419 14.1135C15.0419 14.8508 15.6396 15.4484 16.3768 15.4484C17.1141 15.4484 17.7118 14.8508 17.7118 14.1135C17.7118 13.3762 17.1141 12.7785 16.3768 12.7785ZM26 13.3693V15.9064C26 17.1801 24.9674 18.2127 23.6936 18.2127H22.02C20.3617 22.8173 16.127 25.5984 13 25.5984C9.87303 25.5984 5.6383 22.8173 3.97995 18.2127H2.30635C1.03257 18.2127 0 17.1801 0 15.9064V13.3693C0 12.4928 0.489029 11.7305 1.20908 11.3403C1.23326 7.73836 2.28307 4.92522 4.33389 2.98044C6.36809 1.05143 9.28378 0.0732422 13 0.0732422C16.7162 0.0732422 19.6319 1.05143 21.6661 2.9804C23.7169 4.92517 24.7667 7.73836 24.7909 11.3403C25.511 11.7305 26 12.4928 26 13.3693ZM21.1186 14.1219C21.1186 13.5284 21.0882 12.9708 21.0433 12.4305C20.0198 11.494 18.1616 10.7835 15.8165 10.5194C16.1244 10.8657 16.3904 11.3211 16.5517 11.9207C15.1152 10.789 12.2956 11.0584 10.1629 8.526C10.0406 8.38458 9.93489 8.24944 9.84346 8.12594C9.8424 8.12445 9.84121 8.1233 9.84015 8.12186L9.84041 8.12194C9.46098 7.60882 9.33162 7.30362 9.3244 7.64145C9.26182 10.5521 7.19877 12.8213 4.90788 13.1414C4.8934 13.4615 4.88154 13.7847 4.88154 14.1219C4.88154 15.3522 5.08245 16.4735 5.42402 17.4839C6.71085 19.0362 8.83596 19.4745 10.7169 19.5907C11.0661 19.0352 11.8495 18.6474 12.7619 18.6474C13.9989 18.6474 15.0016 19.3591 15.0016 20.2373C15.0016 21.1153 13.9988 21.8271 12.7619 21.8271C11.8104 21.8271 10.9995 21.4052 10.675 20.8112C9.36042 20.7348 7.9153 20.5107 6.62732 19.9024C8.43857 22.5722 11.2465 23.984 13 23.984C15.7554 23.984 21.1186 20.5031 21.1186 14.1219ZM23.4023 11.063C23.2556 4.77746 19.6679 1.4571 13 1.4571C6.33215 1.4571 2.74449 4.77746 2.59766 11.063H3.48502C3.80947 8.94443 4.4952 7.20213 5.53634 5.86245C7.19546 3.72773 9.70658 2.64529 13 2.64529C16.2934 2.64529 18.8045 3.72773 20.4637 5.86245C21.5048 7.20209 22.1906 8.94443 22.515 11.063H23.4023Z" fill="#FDCD03"/>
</svg>
