<svg width="36" height="41" viewBox="0 0 36 41" fill="none" xmlns="http://www.w3.org/2000/svg">
<path d="M15.189 35.782C10.9544 35.1125 7.09784 32.9535 4.31335 29.6937C1.52887 26.4338 -0.000677872 22.2872 2.2537e-07 18C2.2537e-07 13.2261 1.89644 8.64775 5.27209 5.27209C8.64775 1.89644 13.2261 0 18 0C22.7739 0 27.3523 1.89644 30.7279 5.27209C34.1036 8.64775 36 13.2261 36 18C35.9996 22.195 34.5344 26.2582 31.8575 29.4882C29.1806 32.7181 25.46 34.9119 21.338 35.691L18.238 40.744L15.189 35.782Z" fill="black"/>
<path d="M14.292 26.376V19.738C13.961 19.69 13.654 19.666 13.356 19.6C12.4036 19.3926 11.5512 18.8648 10.9408 18.1049C10.3305 17.3449 9.99909 16.3987 10.002 15.424C9.99698 14.077 10.002 12.73 10.002 11.383V11.165H12.148V11.453C12.148 12.733 12.148 14.013 12.148 15.293C12.1281 15.5975 12.1735 15.9028 12.281 16.1884C12.3886 16.4739 12.5559 16.7332 12.7718 16.949C12.9876 17.1647 13.247 17.3319 13.5326 17.4393C13.8182 17.5468 14.1235 17.592 14.428 17.572C15.2867 17.572 16.1454 17.572 17.0041 17.572C18.2201 17.572 19.4363 17.572 20.653 17.572C21.6798 17.5515 22.6793 17.9035 23.4667 18.5629C24.2541 19.2223 24.7761 20.1445 24.9361 21.159C24.9764 21.3901 24.9964 21.6244 24.996 21.859C25.001 23.214 24.996 24.57 24.996 25.925C24.996 25.982 24.9891 26.039 24.9831 26.113H22.849V25.84C22.849 24.501 22.858 23.163 22.849 21.825C22.8456 21.2918 22.6418 20.7792 22.2782 20.3892C21.9146 19.9991 21.4177 19.7599 20.886 19.719C20.838 19.719 20.786 19.719 20.703 19.719V26.377L14.292 26.376ZM17.338 15.422C16.6098 15.3822 15.9164 15.0974 15.3705 14.6138C14.8246 14.1301 14.4582 13.4761 14.331 12.758C14.1891 11.9239 14.381 11.0676 14.8653 10.3738C15.3495 9.68 16.0872 9.20449 16.919 9.04999C16.974 9.03643 17.0281 9.01943 17.081 8.99902H17.881C18.2432 9.09185 18.5984 9.21015 18.944 9.35303C19.6008 9.68015 20.1246 10.224 20.4267 10.8927C20.7288 11.5614 20.7906 12.3139 20.602 13.023C20.4221 13.7149 20.0162 14.3269 19.4488 14.7617C18.8813 15.1965 18.1849 15.4293 17.47 15.423L17.338 15.422Z" fill="white"/>
</svg>
