<svg width="24" height="24" viewBox="0 0 24 24" fill="none" xmlns="http://www.w3.org/2000/svg">
<path fill-rule="evenodd" clip-rule="evenodd" d="M0.656982 12C0.656982 5.37321 5.874 0 12.3081 0C18.7423 0 23.9593 5.37321 23.9593 12C23.9593 18.6268 18.7423 24 12.3081 24C5.874 24 0.656982 18.6268 0.656982 12ZM11.0492 17.55L18.2844 7.98745C18.3156 7.93924 18.3416 7.88031 18.3364 7.81067C18.3364 7.74102 18.3104 7.67674 18.2688 7.62317L16.6772 6.33209C16.6251 6.28924 16.5627 6.26245 16.4951 6.26245C16.4275 6.26245 16.3651 6.29459 16.3131 6.33745L10.5239 13.9982C10.5239 13.9982 8.24568 11.7428 8.18326 11.6785C8.17479 11.6698 8.16594 11.6602 8.15665 11.6501C8.0974 11.5858 8.01998 11.5017 7.90758 11.5017C7.80342 11.5017 7.74634 11.5651 7.69101 11.6266C7.68003 11.6388 7.66911 11.6509 7.65792 11.6625C7.6059 11.716 6.79448 12.5946 6.39397 13.0285C6.37317 13.0553 6.35756 13.0714 6.33676 13.0928C6.30555 13.141 6.27954 13.2 6.27954 13.2642C6.27954 13.3285 6.30555 13.3875 6.33676 13.4357L6.41478 13.516C6.41478 13.516 10.4511 17.5125 10.5187 17.5821C10.5214 17.5849 10.5241 17.5877 10.5268 17.5905C10.5926 17.6584 10.6691 17.7375 10.784 17.7375C10.88 17.7375 10.9613 17.647 11.0188 17.583C11.0298 17.5708 11.04 17.5595 11.0492 17.55Z" fill="#FDCD03"/>
</svg>
