<svg width="50" height="23" viewBox="0 0 50 23" fill="none" xmlns="http://www.w3.org/2000/svg">
<path d="M39.9115 17.897C39.9115 18.0765 39.926 18.252 39.9485 18.4265C40.209 20.501 41.9765 22.107 44.122 22.107C46.3255 22.107 48.1315 20.4125 48.314 18.257C48.324 18.138 48.3325 18.018 48.3325 17.897C48.3325 15.572 46.447 13.6865 44.122 13.6865C41.7965 13.687 39.9115 15.572 39.9115 17.897Z" fill="#979797"/>
<path d="M5.099 17.897C5.099 18.0765 5.114 18.252 5.136 18.4265C5.3965 20.501 7.164 22.107 9.3095 22.107C11.5135 22.107 13.3195 20.4125 13.502 18.257C13.5125 18.138 13.5205 18.018 13.5205 17.897C13.5205 15.572 11.6355 13.6865 9.31 13.6865C6.9845 13.6865 5.099 15.572 5.099 17.897Z" fill="#979797"/>
<path fill-rule="evenodd" clip-rule="evenodd" d="M0.803985 18.8661L4.17898 18.8136C4.17378 18.7827 4.16806 18.752 4.16233 18.7212L4.16232 18.7211C4.15209 18.6662 4.14185 18.6112 4.13448 18.5551C4.10398 18.3166 4.08948 18.1026 4.08948 17.8981C4.08948 15.0196 6.43098 12.6786 9.30898 12.6786C12.188 12.6786 14.5295 15.0206 14.5295 17.8981C14.5295 18.0481 14.52 18.1951 14.508 18.3436C14.5011 18.424 14.4891 18.503 14.4771 18.5821L14.4771 18.5822L14.4665 18.6531L38.918 18.2691C38.9075 18.1411 38.9015 18.0171 38.9015 17.8986C38.9015 15.0201 41.243 12.6791 44.1215 12.6791C46.7435 12.6791 48.915 14.6246 49.281 17.1471C49.5725 16.5076 49.854 15.6316 49.7445 14.7751C49.6228 13.8263 49.0903 12.8937 48.6503 12.1231C48.3348 11.5705 48.0669 11.1013 48.032 10.7691C47.9968 10.4342 48.0386 10.1246 48.0831 9.79427C48.1444 9.33979 48.211 8.84599 48.09 8.19309C47.881 7.06559 45.923 3.34409 43.9395 2.08109C42.4985 1.16359 41.4605 0.539092 37.084 0.288092C30.9185 -0.0654078 26.687 0.337592 22.9715 1.46709C20.7625 2.13909 13.201 6.07309 10.9085 7.34259C8.73868 8.54422 7.60274 8.93377 6.27629 9.38866L6.27622 9.38868C5.94356 9.50276 5.59892 9.62095 5.22298 9.75709C3.05648 10.5416 1.67998 12.2631 1.13698 13.5641C0.593985 14.8651 0.198485 16.4856 0.803985 18.8661ZM35.4865 7.31109L34.8385 1.81209C38.428 1.87509 42.153 2.15759 42.48 3.41559C42.674 4.16109 41.6925 5.94059 40.517 6.46409C39.609 6.86859 38.2005 7.02159 35.4865 7.31109ZM18.379 5.29909L17.969 6.49859C17.969 6.49859 18.7265 7.44559 18.127 8.67709C18.127 8.67709 25.578 8.21809 31.8905 7.65759L32.582 1.79359H31.731C25.711 1.79359 23.2345 2.69159 18.379 5.29909Z" fill="#979797"/>
</svg>
