<svg width="31" height="32" viewBox="0 0 31 32" fill="none" xmlns="http://www.w3.org/2000/svg">
<path d="M7.58009 15.9791C7.58009 14.4825 7.99245 13.0804 8.70883 11.8799V6.78772H3.61661C1.59554 9.41254 0.500015 12.6115 0.500015 15.9791C0.500015 19.3468 1.59554 22.5457 3.61661 25.1706H8.70883V20.0783C7.99245 18.8778 7.58009 17.4758 7.58009 15.9791Z" fill="#FBBD00"/>
<path d="M15.6042 24.0032L12.0641 27.5432L15.6042 31.0833C18.9719 31.0833 22.1708 29.9878 24.7956 27.9667V22.8799H19.7088C18.4978 23.5989 17.0899 24.0032 15.6042 24.0032Z" fill="#0F9D58"/>
<path d="M8.70884 20.0784L3.61662 25.1706C4.01676 25.6903 4.45248 26.1879 4.92395 26.6595C7.77675 29.5122 11.5697 31.0833 15.6042 31.0833V24.0033C12.6763 24.0033 10.1102 22.4268 8.70884 20.0784Z" fill="#31AA52"/>
<path d="M30.7083 15.9791C30.7083 15.0602 30.6251 14.1396 30.461 13.2429L30.3282 12.5172H15.6042V19.5973H22.7699C22.0741 20.9815 21.0041 22.1108 19.7087 22.88L24.7955 27.9668C25.3152 27.5666 25.8129 27.1309 26.2844 26.6594C29.1372 23.8066 30.7083 20.0136 30.7083 15.9791Z" fill="#3C79E6"/>
<path d="M21.2781 10.3053L21.9039 10.931L26.9102 5.92469L26.2845 5.29893C23.4317 2.44613 19.6387 0.875 15.6042 0.875L12.0641 4.41504L15.6042 7.95508C17.7474 7.95508 19.7625 8.7897 21.2781 10.3053Z" fill="#CF2D48"/>
<path d="M15.6042 7.95508V0.875C11.5697 0.875 7.77673 2.44613 4.92388 5.29887C4.4524 5.77034 4.01668 6.26801 3.61654 6.78775L8.70877 11.88C10.1102 9.53158 12.6763 7.95508 15.6042 7.95508Z" fill="#EB4132"/>
</svg>
