<svg width="16" height="16" viewBox="0 0 16 16" fill="none" xmlns="http://www.w3.org/2000/svg">
<g clip-path="url(#clip0_8_1175)">
<path d="M13.7008 2.29914C12.1814 0.823516 10.1424 0.00500048 8.02442 0.0204793C5.90645 0.0359581 3.87962 0.884189 2.38195 2.38186C0.88428 3.87953 0.0360496 5.90636 0.0205708 8.02433C0.00509204 10.1423 0.823608 12.1813 2.29923 13.7007C3.81863 15.1763 5.85764 15.9949 7.97561 15.9794C10.0936 15.9639 12.1204 15.1157 13.6181 13.618C15.1158 12.1203 15.964 10.0935 15.9795 7.97552C15.9949 5.85755 15.1764 3.81854 13.7008 2.29914ZM8.00002 15.118C4.07498 15.118 0.881907 11.925 0.881907 7.99993C0.881907 4.07489 4.07498 0.881815 8.00002 0.881815C11.9251 0.881815 15.1181 4.07489 15.1181 7.99993C15.1181 11.925 11.9251 15.118 8.00002 15.118Z" fill="#FDCD03"/>
<path d="M7.99998 1.8584C4.61352 1.8584 1.85825 4.61367 1.85825 8.00013C1.85825 11.3866 4.61352 14.1419 7.99998 14.1419C11.3864 14.1419 14.1417 11.3866 14.1417 8.00013C14.1417 4.61367 11.3864 1.8584 7.99998 1.8584ZM7.99998 13.197C5.13384 13.197 2.80313 10.8663 2.80313 8.00013C2.80313 5.13399 5.13384 2.80328 7.99998 2.80328C10.8661 2.80328 13.1968 5.13399 13.1968 8.00013C13.1968 10.8663 10.8661 13.197 7.99998 13.197Z" fill="#FDCD03"/>
<path d="M8.00003 7.05518C7.62426 7.05559 7.264 7.20505 6.99829 7.47076C6.73258 7.73647 6.58312 8.09673 6.5827 8.4725V10.9922C6.5827 11.3681 6.73203 11.7286 6.99783 11.9944C7.26363 12.2602 7.62413 12.4095 8.00003 12.4095C8.37592 12.4095 8.73642 12.2602 9.00222 11.9944C9.26802 11.7286 9.41735 11.3681 9.41735 10.9922V8.4725C9.41693 8.09673 9.26747 7.73647 9.00176 7.47076C8.73605 7.20505 8.37579 7.05559 8.00003 7.05518ZM8.47247 10.9922C8.47247 11.1175 8.42269 11.2377 8.33409 11.3263C8.24549 11.4149 8.12532 11.4646 8.00003 11.4646C7.87473 11.4646 7.75456 11.4149 7.66596 11.3263C7.57736 11.2377 7.52758 11.1175 7.52758 10.9922V8.4725C7.52758 8.3472 7.57736 8.22703 7.66596 8.13843C7.75456 8.04983 7.87473 8.00006 8.00003 8.00006C8.12532 8.00006 8.24549 8.04983 8.33409 8.13843C8.42269 8.22703 8.47247 8.3472 8.47247 8.4725V10.9922Z" fill="#FDCD03"/>
<path d="M8.00003 3.59058C7.71971 3.59058 7.44568 3.6737 7.2126 3.82944C6.97953 3.98518 6.79786 4.20653 6.69059 4.46551C6.58332 4.7245 6.55525 5.00947 6.60994 5.28441C6.66462 5.55934 6.79961 5.81188 6.99783 6.0101C7.19604 6.20831 7.44859 6.3433 7.72352 6.39799C7.99845 6.45268 8.28343 6.42461 8.54241 6.31733C8.80139 6.21006 9.02275 6.0284 9.17849 5.79532C9.33422 5.56224 9.41735 5.28822 9.41735 5.0079C9.41693 4.63213 9.26747 4.27187 9.00176 4.00616C8.73605 3.74045 8.3758 3.59099 8.00003 3.59058ZM8.00003 5.48034C7.90659 5.48034 7.81524 5.45263 7.73755 5.40072C7.65986 5.34881 7.59931 5.27502 7.56355 5.18869C7.52779 5.10237 7.51843 5.00737 7.53666 4.91573C7.55489 4.82409 7.59989 4.7399 7.66596 4.67383C7.73203 4.60776 7.81621 4.56277 7.90786 4.54454C7.9995 4.52631 8.09449 4.53566 8.18082 4.57142C8.26715 4.60718 8.34093 4.66773 8.39285 4.74542C8.44476 4.82312 8.47247 4.91446 8.47247 5.0079C8.47247 5.1332 8.42269 5.25337 8.33409 5.34197C8.24549 5.43056 8.12533 5.48034 8.00003 5.48034Z" fill="#FDCD03"/>
</g>
<defs>
<clipPath id="clip0_8_1175">
<rect width="16" height="16" fill="white"/>
</clipPath>
</defs>
</svg>
