<svg width="18" height="17" viewBox="0 0 18 17" fill="none" xmlns="http://www.w3.org/2000/svg">
<path d="M4.90904 0C4.45718 0 4.09087 0.362433 4.09087 0.809517C4.09087 1.2566 4.45718 1.61903 4.90904 1.61903H5.72722C6.17908 1.61903 6.54539 1.2566 6.54539 0.809517C6.54539 0.362433 6.17908 0 5.72722 0H4.90904Z" fill="#FDCD03"/>
<path d="M6.72774 5.15087L7.47113 4.04759H0.818174C0.366309 4.04759 0 3.68515 0 3.23807C0 2.79098 0.366309 2.42855 0.818174 2.42855H8.98787C8.99639 2.42842 9.00492 2.42842 9.01345 2.42855H10.6363C11.0881 2.42855 11.4544 2.79098 11.4544 3.23807C11.4544 3.68515 11.0881 4.04759 10.6363 4.04759H9.43777L8.04432 6.11564C8.01444 6.16 7.9802 6.20133 7.9421 6.23902L6.47519 7.6904L7.9421 9.14179C8.26162 9.45792 8.26162 9.97048 7.9421 10.2866C7.62258 10.6028 7.10454 10.6028 6.78503 10.2866L5.31812 8.83523L3.03306 11.0961C2.71354 11.4123 2.1955 11.4123 1.87598 11.0961C1.55647 10.78 1.55647 10.2674 1.87598 9.95129L4.16105 7.6904L2.69416 6.23903C2.37464 5.9229 2.37464 5.41034 2.69416 5.0942C3.01368 4.77807 3.53171 4.77807 3.85123 5.0942L5.31812 6.54557L6.72774 5.15087Z" fill="#FDCD03"/>
<path fill-rule="evenodd" clip-rule="evenodd" d="M12.148 6.72552C12.4852 6.56442 12.8782 6.56442 13.2154 6.72552C13.5086 6.86565 13.6677 7.10981 13.7467 7.2412C13.8294 7.37886 13.9143 7.55456 13.9977 7.72716L16.3472 12.5878C16.3525 12.5981 16.3575 12.6086 16.3624 12.6192L17.9197 15.841C18.1147 16.2444 17.9423 16.7277 17.5346 16.9206C17.127 17.1135 16.6385 16.9429 16.4435 16.5396L15.1008 13.7617H10.2626L8.91983 16.5396C8.72487 16.9429 8.23636 17.1135 7.82872 16.9206C7.42108 16.7277 7.24866 16.2444 7.44362 15.841L9.00099 12.6192C9.00583 12.6086 9.01089 12.5981 9.01616 12.5878L11.3656 7.72722C11.449 7.5546 11.5339 7.37887 11.6167 7.2412C11.6957 7.10981 11.8547 6.86565 12.148 6.72552ZM14.3182 12.1427L12.6817 8.7571L11.0452 12.1427H14.3182Z" fill="#FDCD03"/>
</svg>
