<svg width="50" height="19" viewBox="0 0 50 19" fill="none" xmlns="http://www.w3.org/2000/svg">
<path d="M6.9705 11.734C5.152 11.7515 3.6925 13.239 3.7095 15.057C3.711 15.1975 3.724 15.335 3.7425 15.47C3.9615 17.0915 5.3555 18.334 7.033 18.3175C8.7575 18.302 10.156 16.964 10.283 15.275C10.29 15.1825 10.2955 15.089 10.2945 14.994C10.2775 13.1765 8.789 11.717 6.9705 11.734Z" fill="#979797"/>
<path d="M38.8331 11.734C37.0146 11.7515 35.5546 13.239 35.5726 15.057C35.5736 15.1975 35.5866 15.335 35.6051 15.47C35.8241 17.0915 37.2181 18.334 38.8956 18.3175C40.6201 18.302 42.0186 16.964 42.1456 15.275C42.1526 15.1825 42.1581 15.089 42.1571 14.994C42.1396 13.1765 40.6516 11.717 38.8331 11.734Z" fill="#979797"/>
<path fill-rule="evenodd" clip-rule="evenodd" d="M48.0345 12.467L49.1705 12.9655C49.411 13.071 49.567 13.3095 49.5675 13.574V14.0735C49.5675 14.439 49.271 14.736 48.9055 14.736H47.1115V15.3715C47.1115 15.507 47.001 15.6175 46.8655 15.6175H46.309C46.173 15.6175 46.0625 15.507 46.0625 15.3715V14.778L42.902 15.3C42.902 15.3 42.915 15.0935 42.9135 14.989C42.8935 12.7775 41.0775 10.979 38.8265 10.979C36.594 11.0005 34.7955 12.834 34.8165 15.066C34.817 15.106 34.8255 15.179 34.8255 15.179L11.037 15.334C11.037 15.334 11.0515 15.1055 11.0505 14.99C11.03 12.7785 9.214 10.98 6.963 10.98C4.731 11.0015 2.9325 12.835 2.9535 15.067C2.95418 15.1237 2.9597 15.1786 2.96521 15.2333C2.96781 15.2592 2.97041 15.285 2.9725 15.311C1.7045 15.276 0.917 15.2275 0.819 15.156C0.15 14.672 0 13.8955 0 13.8955V12.56C0 12.3555 0.1335 12.175 0.329 12.117L0.8185 11.9695C0.8185 11.9695 0.803 9.57199 0.7975 8.77299C0.792 7.87149 1.396 7.19699 2.68 6.95299C4.153 6.67299 8.582 5.89049 8.582 5.89049C8.582 5.89049 12.461 2.49699 13.965 1.28099C14.3215 0.992995 14.748 0.800495 15.1995 0.721495C20.422 -0.187505 42.114 -0.314505 45.8425 0.785995C46.0845 0.857495 46.2855 1.02749 46.3975 1.25399C49.0245 6.57649 48.0345 12.467 48.0345 12.467ZM18.534 6.39249C18.689 6.39249 18.817 6.27199 18.8265 6.11749L19.097 1.83449C19.1015 1.75249 19.0725 1.67199 19.0155 1.61299C18.9585 1.55399 18.8795 1.52099 18.7975 1.52249L15.64 1.58849C15.3165 1.59499 15.006 1.71999 14.7675 1.93899L12.764 3.78299C12.764 3.78299 13.001 4.00049 13.0475 4.57299C13.077 4.93749 13.071 6.39249 13.071 6.39249H18.534Z" fill="#979797"/>
</svg>
