<svg width="29" height="28" viewBox="0 0 29 28" fill="none" xmlns="http://www.w3.org/2000/svg">
<path d="M28.7863 17.4168V27.8784H22.721V18.1179C22.721 15.6672 21.8453 13.9935 19.6492 13.9935C17.9733 13.9935 16.9777 15.1203 16.538 16.2113C16.3784 16.6012 16.3372 17.1427 16.3372 17.6896V27.8779H10.2714C10.2714 27.8779 10.3528 11.3469 10.2714 9.63577H16.3376V12.2209C16.3254 12.2412 16.3082 12.2611 16.2974 12.2806H16.3376V12.2209C17.1437 10.9806 18.5812 9.20741 21.8041 9.20741C25.7946 9.20741 28.7863 11.8147 28.7863 17.4168ZM3.92606 0.842407C1.85121 0.842407 0.493759 2.20438 0.493759 3.99381C0.493759 5.74525 1.81186 7.14658 3.84645 7.14658H3.88581C6.00137 7.14658 7.31676 5.74525 7.31676 3.99381C7.2765 2.20438 6.00137 0.842407 3.92606 0.842407ZM0.854268 27.8784H6.9178V9.63577H0.854268V27.8784Z" fill="#0077B5"/>
</svg>
