<svg width="26" height="35" viewBox="0 0 26 35" fill="none" xmlns="http://www.w3.org/2000/svg">
<g filter="url(#filter0_f_8_1667)">
<rect x="7.18457" y="24.4036" width="11.9511" height="4.59656" rx="1.93056" fill="#B3B3B3" fill-opacity="0.8"/>
</g>
<g filter="url(#filter1_d_8_1667)">
<path fill-rule="evenodd" clip-rule="evenodd" d="M13.263 24.4035C14.1595 24.4035 18.429 19.0418 19.4818 17.3338C21.1001 14.7084 22.0992 13.1552 22.0992 10.2569C22.0992 5.37677 18.1431 1.42065 13.263 1.42065C8.38287 1.42065 4.42676 5.37677 4.42676 10.2569C4.42676 13.1703 5.35255 14.7131 6.96545 17.3338C8.0896 19.1604 12.3664 24.4035 13.263 24.4035Z" fill="#FDCD03"/>
<path d="M13.263 24.955C13.4427 24.955 13.6015 24.8923 13.7122 24.8379C13.8324 24.7789 13.9534 24.7004 14.0705 24.6146C14.3051 24.4427 14.5706 24.2063 14.85 23.9339C15.4112 23.3866 16.0749 22.6476 16.7354 21.8648C18.0524 20.3038 19.4035 18.5119 19.9513 17.6233C19.9945 17.5533 20.0372 17.4839 20.0796 17.4152C21.622 14.9152 22.6508 13.2476 22.6508 10.2569C22.6508 5.07213 18.4477 0.869067 13.263 0.869067C8.07824 0.869067 3.87517 5.07213 3.87517 10.2569C3.87517 13.3382 4.87979 14.9974 6.49569 17.6229C7.08055 18.5732 8.45295 20.3665 9.78111 21.913C10.4473 22.6887 11.1145 23.4166 11.6779 23.9546C11.9584 24.2224 12.2246 24.4543 12.4597 24.6229C12.577 24.707 12.6981 24.7837 12.818 24.8413C12.9288 24.8946 13.086 24.955 13.263 24.955Z" stroke="black" stroke-width="1.10317"/>
</g>
<path fill-rule="evenodd" clip-rule="evenodd" d="M13.2628 14.6748C15.7029 14.6748 17.6809 12.6968 17.6809 10.2567C17.6809 7.81668 15.7029 5.83862 13.2628 5.83862C10.8228 5.83862 8.84473 7.81668 8.84473 10.2567C8.84473 12.6968 10.8228 14.6748 13.2628 14.6748Z" fill="black"/>
<defs>
<filter id="filter0_f_8_1667" x="1.18709" y="18.4061" width="23.9461" height="16.5916" filterUnits="userSpaceOnUse" color-interpolation-filters="sRGB">
<feFlood flood-opacity="0" result="BackgroundImageFix"/>
<feBlend mode="normal" in="SourceGraphic" in2="BackgroundImageFix" result="shape"/>
<feGaussianBlur stdDeviation="2.99874" result="effect1_foregroundBlur_8_1667"/>
</filter>
<filter id="filter1_d_8_1667" x="0.565794" y="0.317383" width="25.3943" height="30.7051" filterUnits="userSpaceOnUse" color-interpolation-filters="sRGB">
<feFlood flood-opacity="0" result="BackgroundImageFix"/>
<feColorMatrix in="SourceAlpha" type="matrix" values="0 0 0 0 0 0 0 0 0 0 0 0 0 0 0 0 0 0 127 0" result="hardAlpha"/>
<feOffset dy="2.75794"/>
<feGaussianBlur stdDeviation="1.37897"/>
<feColorMatrix type="matrix" values="0 0 0 0 0 0 0 0 0 0 0 0 0 0 0 0 0 0 0.2 0"/>
<feBlend mode="normal" in2="BackgroundImageFix" result="effect1_dropShadow_8_1667"/>
<feBlend mode="normal" in="SourceGraphic" in2="effect1_dropShadow_8_1667" result="shape"/>
</filter>
</defs>
</svg>
