<svg width="123" height="122" viewBox="0 0 123 122" fill="none" xmlns="http://www.w3.org/2000/svg">
<path d="M41.5027 0H80.5641L92.1604 3.01077L101.926 7.82801L108.029 13.2474L114.132 21.6776L118.405 30.1077L119.015 34.925L116.574 33.7207L110.47 28.3013L101.926 23.484L93.9914 21.0754L81.7847 19.8711H40.8924L33.5684 21.6776L28.0754 25.2905L23.803 30.1077L20.7514 36.7314L20.141 39.1401V48.1724L21.972 54.1939L26.2444 60.8176L31.127 64.4306L37.8407 67.4413L42.113 68.0435H76.9021L82.3951 69.2478L86.0571 71.6564L87.8881 75.8715L87.2777 81.2909L84.2261 86.1081L80.5641 87.3124H41.5027L32.958 86.1081L23.803 82.4952L17.6997 78.2801L11.5963 72.8607L6.10334 65.6349L1.831 57.2047L0 48.1724V40.3444L1.22067 33.1185L4.88267 24.0862L9.15501 16.8603L14.648 11.4409L23.1927 5.41939L31.127 1.80646L36.0097 0.602155L41.5027 0Z" fill="white"/>
<path d="M56.761 33.7207H72.0193L82.395 34.3228L90.9397 36.1293L98.874 39.1401L106.198 43.9573L111.691 48.7745L115.963 54.7961L120.236 63.2263L122.067 69.2478L122.677 77.678L121.456 88.5168L117.184 99.3555L112.912 104.775L106.198 111.399L100.095 115.614L92.1603 119.227L87.888 120.431L82.395 121.033H40.282L30.5166 118.624L21.3616 113.807L14.0376 107.184L7.93427 98.7534L3.66193 88.5168V86.1081L6.10326 87.3124L10.3756 92.1297L16.4789 96.3448L23.1926 99.3555L31.7373 101.162L37.8406 101.764H83.6157L90.9397 98.7534L96.4327 94.5383L100.095 89.7211L101.926 85.506L102.536 82.4952V73.4629L100.095 66.237L96.4327 60.8176L92.1603 57.2047L84.8363 54.1939L80.564 53.5918L40.8923 52.9896L36.0096 48.7745L34.789 46.9681V41.5487L36.62 37.9358L40.282 34.925L41.5026 34.3228L56.761 33.7207Z" fill="#FDCD03"/>
</svg>
