<svg width="50" height="22" viewBox="0 0 50 22" fill="none" xmlns="http://www.w3.org/2000/svg">
<path d="M0.425936 16.5257C0.437342 17.4644 1.84875 17.4338 1.91199 17.432C1.84325 17.0933 1.80669 16.742 1.80669 16.382C1.80669 13.4626 4.18256 11.0858 7.10282 11.0858C10.0229 11.0858 12.399 13.4626 12.399 16.382C12.399 16.9942 12.2892 17.579 12.0976 18.1262C17.9911 17.7389 36.5466 17.8772 37.331 17.9645C37.4302 17.9755 37.6343 17.9732 37.9158 17.961C37.8309 17.5806 37.7807 17.1871 37.7807 16.7819C37.7807 13.834 40.1791 11.4356 43.128 11.4356C46.0498 11.4356 48.4302 13.7952 48.4702 16.7077L49.3881 16.3203C49.5913 16.2355 49.5615 16.2278 49.3656 16.1261C49.1383 16.0082 49.0004 15.6458 49.5904 14.5999C50.3344 13.2789 49.6418 12.322 49.1986 11.8902C49.0399 11.7372 48.8947 11.456 48.891 11.236C48.8408 8.02643 47.6198 6.92032 46.9913 6.56258C46.7996 6.45403 46.8025 6.37572 47.0203 6.33814C49.8871 5.84252 47.9463 5.87206 47.6916 5.10556C47.4256 4.30607 45.6932 5.17185 44.7939 5.40525C44.462 5.49161 43.4177 5.67704 42.2327 5.87766C42.2869 5.81788 42.3208 5.75546 42.3036 5.68906C42.2559 5.50444 42.1997 5.3581 42.1457 5.24446C42.0514 5.04456 41.8368 4.7523 41.6671 4.61045C41.4572 4.43397 41.1153 4.25892 40.6255 4.34028C40.4627 4.36768 40.3236 4.45871 40.2048 4.59059C40.1799 4.55138 40.1551 4.51126 40.1321 4.48C39.9309 4.20454 39.5694 3.88478 39.0271 4.01238C38.3998 4.16034 38.1276 5.65535 38.0174 6.56106C37.8065 6.58672 37.5437 6.60515 37.3649 6.60515H33.9672C34.6642 5.71778 33.8541 5.17012 33.2093 5.12684C33.0368 5.11472 32.7854 5.21971 32.5104 5.37552C32.3479 5.10148 32.057 4.93601 31.7946 4.91177C31.3652 4.87338 30.3724 5.94629 29.8999 6.48835C29.8688 6.52429 29.8493 6.56452 29.835 6.60423H21.0434V5.48071C21.0434 5.09466 20.7299 4.78122 20.3439 4.78122C19.9578 4.78122 19.6444 5.09466 19.6444 5.48071V6.60423H18.0791C17.8585 6.60423 17.8112 6.48163 17.9718 6.33102C18.9855 5.37847 22.2791 2.24568 22.1097 1.90759C21.9945 1.67806 22.1329 1.31666 22.2714 1.05047C22.3728 0.855049 22.3543 0.57511 22.1705 0.452401C21.8587 0.244152 21.3103 -0.000755936 20.5361 0.0984294C20.3172 0.126535 19.9722 0.224906 19.7738 0.321647C18.0957 1.14334 13.9659 4.70413 12.8172 5.70658C12.6509 5.8521 12.3381 5.98407 12.1177 6.0024C2.3352 6.82511 0.956079 10.0106 0.777769 11.1382C0.743452 11.3562 0.608421 11.641 0.47003 11.8128C-0.365713 12.8549 0.117281 14.9061 0.368604 15.7525C0.431435 15.9646 0.423696 16.3049 0.425936 16.5257Z" fill="#979797"/>
<path d="M34.2834 4.54341C34.2834 3.64565 33.8022 2.91724 33.2093 2.91724C32.8486 2.91724 32.5315 3.18862 32.3364 3.60115C32.1826 3.3373 31.9602 3.16713 31.7105 3.16713C31.2481 3.16713 30.8734 3.73455 30.8734 4.43404C30.8734 5.13373 31.2481 4.89045 31.7105 4.89045C31.8901 4.89045 32.0545 4.92559 32.1912 4.92946C32.3307 5.3206 32.7316 5.12864 33.2094 5.12864C33.803 5.12864 34.2834 5.44127 34.2834 4.54341Z" fill="#979797"/>
<path d="M39.1267 3.7586C39.3062 3.7586 39.4711 3.79373 39.6078 3.7976C39.7465 4.18874 40.1473 3.99587 40.6255 3.99587C41.2181 3.99587 41.7001 4.3085 41.7001 3.41064C41.7001 2.51277 41.2182 1.78467 40.6255 1.78467C40.2653 1.78467 39.9473 2.05585 39.7523 2.46837C39.5993 2.20453 39.3768 2.03436 39.1267 2.03436C38.6647 2.03436 38.2892 2.60198 38.2892 3.30147C38.2892 4.00269 38.6638 3.7586 39.1267 3.7586Z" fill="#979797"/>
<path d="M7.10278 20.8796C8.93903 20.8796 10.5154 19.7773 11.2143 18.2003C11.4605 17.6437 11.5995 17.0309 11.5995 16.3827C11.5995 13.8994 9.58659 11.886 7.10278 11.886C4.61897 11.886 2.60583 13.8994 2.60583 16.3827C2.60583 16.7169 2.64504 17.041 2.71357 17.354C3.15848 19.37 4.95329 20.8796 7.10278 20.8796Z" fill="#979797"/>
<path d="M43.128 12.2358C40.6166 12.2358 38.5802 14.271 38.5802 16.7827C38.5802 17.1729 38.6349 17.5491 38.728 17.9107C39.2299 19.8748 41.0067 21.3292 43.128 21.3292C45.5589 21.3292 47.5386 19.4189 47.663 17.0181C47.6667 16.9394 47.6744 16.8623 47.6744 16.7819C47.6736 14.2711 45.6384 12.2358 43.128 12.2358Z" fill="#979797"/>
</svg>
