<svg width="30" height="24" viewBox="0 0 30 24" fill="none" xmlns="http://www.w3.org/2000/svg">
<path fill-rule="evenodd" clip-rule="evenodd" d="M29.343 20.8333V2.5C29.343 1.11979 28.2558 0 26.9157 0H2.64241C1.30233 0 0.215088 1.11979 0.215088 2.5V20.8333C0.215088 22.2135 1.30233 23.3333 2.64241 23.3333H26.9157C28.2558 23.3333 29.343 22.2135 29.343 20.8333ZM14.3797 19.4792C14.4201 19.2084 14.587 19.0261 14.8601 19.0261C15.123 19.0261 15.3 19.1824 15.3455 19.4792H14.3797ZM8.91801 19.0417C8.55897 19.0417 8.35163 19.3126 8.35163 19.6511C8.35163 19.9897 8.55897 20.2605 8.91801 20.2605C9.24671 20.2605 9.46922 20.0053 9.46922 19.6511C9.46416 19.3126 9.24671 19.0417 8.91801 19.0417ZM24.635 19.6511C24.635 20.0053 24.4024 20.2605 24.0686 20.2605C23.7248 20.2605 23.5023 19.9897 23.5023 19.6511C23.5023 19.3126 23.7248 19.0417 24.0686 19.0417C24.4024 19.0417 24.635 19.3126 24.635 19.6511ZM20.3113 19.0417C19.9674 19.0417 19.7601 19.3126 19.7601 19.6511C19.7601 19.9897 19.9674 20.2605 20.3113 20.2605C20.6551 20.2605 20.8776 20.0053 20.8776 19.6511C20.8776 19.3126 20.6551 19.0417 20.3113 19.0417ZM25.6724 20.4195C25.6693 20.413 25.6667 20.4074 25.6667 20.401C25.6599 20.3892 25.6571 20.3785 25.6548 20.3693C25.652 20.3582 25.6497 20.3494 25.6414 20.3437C25.6344 20.3388 25.6273 20.3362 25.6192 20.3333C25.6099 20.3299 25.5993 20.326 25.5858 20.3176C25.5706 20.302 25.5555 20.302 25.5302 20.302C25.515 20.302 25.4998 20.302 25.4746 20.3176L25.4722 20.3192L25.4681 20.3216C25.465 20.3235 25.462 20.3249 25.459 20.3264C25.451 20.3303 25.4436 20.3339 25.4341 20.3437L25.4281 20.3523C25.4189 20.3654 25.4088 20.3797 25.4088 20.401C25.3936 20.4166 25.3936 20.4322 25.3936 20.4583C25.3936 20.4739 25.3936 20.4895 25.4088 20.5155C25.4088 20.5312 25.4189 20.5416 25.4341 20.5572C25.439 20.5606 25.4434 20.5646 25.4477 20.5683C25.4564 20.5761 25.4643 20.5833 25.4746 20.5833C25.5049 20.5989 25.515 20.5989 25.5302 20.5989C25.5605 20.5989 25.5706 20.5989 25.5858 20.5833C25.6161 20.5833 25.6263 20.5728 25.6414 20.5572C25.6452 20.5513 25.6476 20.5462 25.6499 20.5412C25.6537 20.533 25.6573 20.5253 25.6667 20.5155C25.6667 20.4972 25.6719 20.4861 25.6762 20.4768C25.6793 20.4703 25.6819 20.4647 25.6819 20.4583C25.6819 20.4399 25.6767 20.4288 25.6724 20.4195ZM25.5554 20.474C25.5696 20.474 25.5759 20.469 25.5813 20.4647C25.5838 20.4627 25.5861 20.4608 25.5889 20.4597C25.5909 20.4588 25.5931 20.4583 25.5958 20.4583C25.611 20.4427 25.611 20.4323 25.611 20.4167C25.611 20.401 25.611 20.3906 25.5958 20.375C25.5896 20.375 25.5841 20.3723 25.5778 20.3692C25.5688 20.3647 25.558 20.3594 25.5402 20.3594H25.4593V20.5417H25.4998V20.4688H25.5149L25.5706 20.5417H25.611L25.5554 20.474ZM3.45147 9.77092C3.45147 13.7553 6.59182 16.9845 10.4553 16.9845C11.8308 16.9845 13.181 16.5574 14.3239 15.7813C10.6374 12.6928 10.6627 6.86467 14.3239 3.77613C13.181 2.99488 11.8308 2.573 10.4553 2.573C6.59182 2.5678 3.45147 5.80217 3.45147 9.77092ZM14.7791 15.4375C18.3442 12.5729 18.329 6.98958 14.7791 4.10938C11.2291 6.98958 11.2139 12.5781 14.7791 15.4375ZM7.58314 19.4114C7.58314 18.9583 7.2949 18.6614 6.83977 18.6458C6.60715 18.6458 6.35936 18.7187 6.19248 18.9843C6.07112 18.7708 5.86378 18.6458 5.57554 18.6458C5.38338 18.6458 5.19121 18.7187 5.03951 18.927V18.6978H4.62484V20.6093H5.03951C5.03951 20.4489 5.03615 20.2989 5.03304 20.1604C5.0171 19.4487 5.00786 19.0364 5.49463 19.0364C5.93189 19.0364 5.92579 19.4182 5.9138 20.169C5.91164 20.3039 5.9093 20.4507 5.9093 20.6093H6.30879C6.30879 20.455 6.30548 20.3095 6.3024 20.1739C6.28642 19.4718 6.27651 19.0364 6.76392 19.0364C7.20103 19.0364 7.19509 19.4104 7.1831 20.1648V20.1648V20.1649C7.18094 20.3007 7.17859 20.4488 7.17859 20.6093H7.59325V19.4114H7.58314ZM9.45405 18.6978H9.85354V20.6145H9.45405V20.3749C9.31751 20.5572 9.12535 20.6562 8.86238 20.6562C8.34152 20.6562 7.94202 20.2343 7.94202 19.651C7.94202 19.0728 8.34152 18.6458 8.86238 18.6458C9.12535 18.6458 9.31751 18.7551 9.45405 18.927V18.6978ZM11.9018 20.0313C11.9018 19.5671 11.493 19.5037 11.1612 19.4523C10.9345 19.4172 10.7437 19.3876 10.7437 19.2396C10.7437 18.9427 11.3455 18.9896 11.6793 19.1823L11.8461 18.8438C11.3708 18.5261 10.3189 18.5313 10.3189 19.2709C10.3189 19.713 10.7271 19.7825 11.0587 19.8391C11.2858 19.8777 11.477 19.9103 11.477 20.0521C11.477 20.3802 10.7943 20.3542 10.4302 20.0938L10.2532 20.4219C10.8196 20.8177 11.9018 20.7344 11.9018 20.0313ZM13.5807 20.1614L13.6919 20.5155C13.4239 20.6978 12.549 20.8645 12.549 19.9478V19.078H12.1647V18.6978H12.549V18.1145H12.9637V18.6978H13.6262V19.0833H12.9637V19.9478C12.9637 20.3905 13.3885 20.2708 13.5807 20.1614ZM14.3645 19.8177H15.7551C15.7551 18.974 15.3809 18.6406 14.8752 18.6406C14.3392 18.6406 13.9549 19.0521 13.9549 19.6458C13.9549 20.7135 15.0977 20.8906 15.6641 20.3854L15.4719 20.0729C15.0775 20.4062 14.4808 20.375 14.3645 19.8177ZM16.5845 18.9271C16.7665 18.6042 17.1205 18.5938 17.3531 18.6979L17.2318 19.0938C17.0649 19.0052 16.5845 18.9271 16.5845 19.5313V20.6094H16.1698V18.6979H16.5845V18.9271ZM17.8892 19.651C17.8892 19.0572 18.4758 18.8645 18.9359 19.2135L19.1281 18.8749C18.5415 18.401 17.4745 18.6614 17.4745 19.6562C17.4745 20.6874 18.6072 20.8958 19.1281 20.4374L18.9359 20.0989C18.4707 20.4374 17.8892 20.2343 17.8892 19.651ZM20.8473 18.698H21.262V20.6147H20.8473V20.3751C20.468 20.9376 19.3353 20.6511 19.3353 19.6511C19.3353 18.6772 20.4276 18.3543 20.8473 18.9272V18.698ZM22.9663 18.698C22.8449 18.6355 22.4101 18.547 22.1977 18.9272V18.698H21.7982V20.6095H22.1977V19.5313C22.1977 18.9584 22.6528 18.9949 22.8449 19.0938L22.9663 18.698ZM24.6047 17.9219H25.0042V20.6146H24.6047V20.375C24.2305 20.9323 23.0927 20.6615 23.0927 19.651C23.0927 18.6615 24.19 18.3594 24.6047 18.9271V17.9219ZM25.3885 14.0104V14.25H25.429V14.0104H25.525V13.9688H25.2924V14.0104H25.3885ZM25.7072 20.3751C25.7223 20.4011 25.7223 20.4324 25.7223 20.4584C25.7223 20.474 25.7223 20.5001 25.7072 20.5313C25.6996 20.5391 25.6933 20.5496 25.6869 20.56C25.6806 20.5704 25.6743 20.5808 25.6667 20.5886C25.6591 20.5964 25.649 20.6029 25.6389 20.6095C25.6288 20.616 25.6187 20.6225 25.6111 20.6303C25.5858 20.6459 25.5555 20.6459 25.5302 20.6459C25.515 20.6459 25.4847 20.6459 25.4594 20.6303C25.429 20.6147 25.4189 20.6042 25.4038 20.5886C25.3785 20.573 25.3633 20.547 25.3633 20.5313C25.3481 20.5001 25.3481 20.474 25.3481 20.4584C25.3481 20.4324 25.3481 20.4011 25.3633 20.3751C25.3633 20.3595 25.3785 20.3334 25.4038 20.3178C25.4189 20.3022 25.4341 20.2917 25.4594 20.2761C25.4772 20.2761 25.4932 20.2708 25.5065 20.2663C25.5159 20.2632 25.5239 20.2605 25.5302 20.2605C25.5428 20.2605 25.5567 20.2644 25.5706 20.2683C25.5845 20.2722 25.5984 20.2761 25.6111 20.2761C25.6187 20.2839 25.6288 20.2904 25.6389 20.297C25.649 20.3035 25.6591 20.31 25.6667 20.3178C25.6743 20.3256 25.6806 20.336 25.6869 20.3464C25.6933 20.3569 25.6996 20.3673 25.7072 20.3751ZM25.8841 13.9636H25.8133L25.7324 14.1459L25.6515 13.9636H25.5807V14.2449H25.6211V14.0313L25.702 14.2136H25.7577L25.8285 14.0313V14.2449H25.8841V13.9636ZM19.1027 2.56763C22.9662 2.56763 26.1066 5.802 26.1066 9.77075C26.1066 13.7551 22.9662 16.9843 19.1027 16.9791C17.7374 16.9791 16.3771 16.5572 15.2342 15.776C18.9359 12.703 18.8802 6.85929 15.2342 3.77075C16.3771 2.99471 17.7273 2.56763 19.1027 2.56763Z" fill="black"/>
</svg>
