<svg width="50" height="36" viewBox="0 0 50 36" fill="none" xmlns="http://www.w3.org/2000/svg">
<path fill-rule="evenodd" clip-rule="evenodd" d="M8.04658 35.5701C12.4915 35.5701 16.0936 31.9672 16.0936 27.5232C16.0936 27.2442 16.0795 26.9692 16.0514 26.6975L19.2938 26.1282C19.2938 26.1282 19.4036 25.9819 20.2028 26.7827C20.5446 27.1245 21.0096 27.1678 21.4339 27.1124C22.188 27.3673 23.8939 27.8579 25.8641 27.8579C27.3927 27.8579 29.0764 27.5603 30.5815 26.6228C32.8764 25.1916 34.2337 22.5864 34.6446 18.9013C35.6553 17.7869 36.7078 16.9173 37.7393 16.2403L38.6255 18.8796C35.8425 20.1459 33.904 22.945 33.904 26.2012C33.904 30.6453 37.5078 34.2475 41.9509 34.2475C46.3943 34.2475 49.998 30.6445 49.998 26.2012C49.998 21.7565 46.3943 18.1548 41.9509 18.1548C41.3447 18.1548 40.7554 18.2271 40.187 18.3546L39.1932 15.3933C42.2936 13.8133 44.8601 13.837 44.8601 13.837L45.8234 14.3642L49.0234 14.6187C47.0961 12.3827 39.4955 12.7818 39.4955 12.7818L41.1149 12.5093C41.1149 12.5093 41.0601 10.7636 40.0599 8.61795C39.0598 6.47245 37.9686 5.21764 37.9686 5.21764C37.8688 5.33022 37.8037 5.46298 37.7522 5.6004C37.7699 4.12338 37.7891 2.64637 37.9026 1.17168C37.9036 1.1597 37.9016 1.14989 37.8995 1.14006V1.14005L37.8995 1.13997C37.898 1.13301 37.8965 1.12603 37.8961 1.11826C37.9323 0.966708 37.8842 0.803509 37.6991 0.712981C37.1025 0.421521 36.5155 0.175558 35.8443 0.142484C35.6616 0.133633 35.4944 0.275093 35.4478 0.444813C35.2356 1.21189 35.1793 2.01562 35.2708 2.80351L35.2421 2.74524L35.242 2.74515L35.242 2.74505C35.1859 2.63114 35.13 2.51765 35.0682 2.40506C34.9564 2.20413 34.7626 2.17338 34.5953 2.2355C34.4071 2.2032 34.1933 2.27571 34.1098 2.50397C34.0592 2.642 33.9864 2.76312 33.9143 2.88305C33.7938 3.08342 33.6754 3.28048 33.6658 3.54761C33.6419 4.21904 34.4217 4.65522 34.9154 4.9237C35.0089 4.97478 35.102 4.97727 35.1904 4.96065C35.4331 5.94357 35.5137 6.95879 35.454 8.00118C33.952 8.97525 34.5311 9.86376 34.5311 9.86376L34.2584 10.3273C34.2584 10.3273 32.8393 8.3091 28.2031 11.3094C24.0346 14.0071 20.6594 12.7356 17.8005 11.6586L17.8004 11.6586L17.8003 11.6585C17.4796 11.5378 17.1655 11.4194 16.8575 11.3094C13.803 10.2183 2.56568 9.94621 2.56568 9.94621C8.09363 10.7824 10.53 15.328 10.53 15.328L6.1663 12.6374C4.23866 12.8195 4.74752 14.8557 4.74752 14.8557L12.7845 19.7648C14.348 19.1827 16.1298 20.9284 16.1298 20.9284L17.8026 23.8745L15.5107 24.5273C14.3207 21.5692 11.4311 19.4785 8.04674 19.4785C3.60217 19.4785 0 23.0816 0 27.5248C0 31.9679 3.60295 35.5701 8.04658 35.5701ZM41.95 20.6235C45.0256 20.6235 47.5261 23.1249 47.5261 26.2004C47.5261 29.2752 45.0255 31.7765 41.95 31.7765C38.8745 31.7765 36.3739 29.2752 36.3739 26.2004C36.3739 24.0383 37.6123 22.1633 39.4165 21.2386L41.1693 26.4617C41.2851 26.806 41.6059 27.0238 41.95 27.0238C42.036 27.0238 42.1245 27.0093 42.2113 26.9813C42.6422 26.8357 42.8747 26.3695 42.7309 25.9375L40.978 20.7136C41.2939 20.6582 41.618 20.6235 41.95 20.6235ZM36.9624 3.65304C36.7318 3.8546 36.4896 4.0459 36.2388 4.24171C36.1231 4.33068 35.996 4.35863 35.8793 4.34124C36.1873 5.37696 36.3216 6.45165 36.2998 7.55149C36.4817 7.46981 36.6795 7.38829 36.8981 7.30786C36.9092 6.78455 36.9167 6.26122 36.9242 5.73794C36.9341 5.04281 36.9441 4.34777 36.9624 3.65304ZM27.4762 17.1091C31.3115 15.9589 32.6124 17.6905 33.021 18.6159C32.6825 21.8274 31.5786 24.0561 29.7163 25.2212C27.2736 26.7481 24.0734 26.1515 22.537 25.7245C22.7057 23.4692 23.5234 18.295 27.4762 17.1091ZM13.1137 25.2083C12.2317 23.2875 10.2955 21.9471 8.04658 21.9471C4.97221 21.9471 2.47003 24.4484 2.4691 27.5232C2.4691 30.5987 4.9705 33.1001 8.04565 33.1001C11.1213 33.1001 13.6227 30.5987 13.6227 27.5232C13.6227 27.4054 13.6143 27.2898 13.6059 27.1741C13.6048 27.1589 13.6037 27.1436 13.6026 27.1284L7.29286 28.2372L7.07453 26.9282L13.1137 25.2083Z" fill="#979797"/>
<path d="M32.0224 20.0366H24.7666L23.5662 25.1649C30.8766 26.5278 32.0224 20.0366 32.0224 20.0366Z" fill="#979797"/>
</svg>
