<svg width="12" height="13" viewBox="0 0 12 13" fill="none" xmlns="http://www.w3.org/2000/svg">
<path d="M2 8.44257H1.625H2ZM3.36646 10.0417L3.41796 9.67027H3.41796L3.36646 10.0417ZM8.45963 10.0417L8.40813 9.67027H8.40812L8.45963 10.0417ZM9.59286 7.59362L9.27078 7.78569L9.59286 7.59362ZM3.24457 5.04348C3.24457 3.56972 4.43929 2.375 5.91305 2.375V1.625C4.02508 1.625 2.49457 3.1555 2.49457 5.04348H3.24457ZM3.24457 6.08974V5.04348H2.49457V6.08974H3.24457ZM2.375 8.44257C2.375 8.20183 2.44085 7.97761 2.55531 7.78569L1.91116 7.40154C1.72935 7.7064 1.625 8.06287 1.625 8.44257H2.375ZM3.41796 9.67027C2.81814 9.5871 2.375 9.06564 2.375 8.44257H1.625C1.625 9.4224 2.32706 10.2762 3.31495 10.4132L3.41796 9.67027ZM5.91304 9.88598C5.16705 9.88598 4.20326 9.77916 3.41796 9.67027L3.31495 10.4132C4.10634 10.5229 5.11269 10.636 5.91304 10.636V9.88598ZM8.40812 9.67027C7.62283 9.77916 6.65903 9.88598 5.91304 9.88598V10.636C6.7134 10.636 7.71975 10.5229 8.51114 10.4132L8.40812 9.67027ZM9.45109 8.44257C9.45109 9.06564 9.00794 9.5871 8.40813 9.67027L8.51114 10.4132C9.49903 10.2762 10.2011 9.4224 10.2011 8.44257H9.45109ZM9.27078 7.78569C9.38523 7.97762 9.45109 8.20183 9.45109 8.44257H10.2011C10.2011 8.06287 10.0967 7.70641 9.91493 7.40155L9.27078 7.78569ZM8.58153 5.04348V6.08976H9.33153V5.04348H8.58153ZM5.91305 2.375C7.38681 2.375 8.58153 3.56972 8.58153 5.04348H9.33153C9.33153 3.15551 7.80103 1.625 5.91305 1.625V2.375ZM9.91493 7.40155C9.76049 7.14257 9.62021 6.93505 9.50454 6.70333C9.39379 6.48145 9.33153 6.2835 9.33153 6.08976H8.58153C8.58153 6.44618 8.69654 6.76391 8.8335 7.03829C8.96555 7.30282 9.14343 7.57215 9.27078 7.78569L9.91493 7.40155ZM2.49457 6.08974C2.49457 6.28348 2.43231 6.48143 2.32156 6.70331C2.20588 6.93504 2.06561 7.14256 1.91116 7.40154L2.55531 7.78569C2.68266 7.57215 2.86055 7.30281 2.9926 7.03828C3.12956 6.76389 3.24457 6.44616 3.24457 6.08974H2.49457Z" fill="#3A3B3D"/>
<path d="M7 11.417C6.76632 11.7684 6.36673 12.0001 5.91305 12.0001C5.45936 12.0001 5.05977 11.7684 4.82609 11.417" stroke="#3A3B3D" stroke-width="0.75" stroke-linecap="round"/>
<circle cx="8.5" cy="2.5" r="2.5" fill="#F83332"/>
</svg>
