<svg width="25" height="25" viewBox="0 0 25 25" fill="none" xmlns="http://www.w3.org/2000/svg">
<path d="M6.64062 13.2324C6.23612 13.2324 5.9082 12.9045 5.9082 12.5C5.9082 12.0955 6.23612 11.7676 6.64062 11.7676C7.04513 11.7676 7.37305 12.0955 7.37305 12.5C7.37305 12.9045 7.04513 13.2324 6.64062 13.2324Z" fill="#212121"/>
<path d="M12.5 0C19.3925 0 25 5.60747 25 12.5C25 19.3925 19.3925 25 12.5 25C5.60747 25 0 19.3925 0 12.5C0 5.60747 5.60747 0 12.5 0ZM18.3594 14.6973C19.5709 14.6973 20.5566 13.7116 20.5566 12.5C20.5566 11.2884 19.5709 10.3027 18.3594 10.3027C17.1478 10.3027 16.1621 11.2884 16.1621 12.5C16.1621 13.7116 17.1478 14.6973 18.3594 14.6973ZM12.5 14.6973C13.7116 14.6973 14.6973 13.7116 14.6973 12.5C14.6973 11.2884 13.7116 10.3027 12.5 10.3027C11.2884 10.3027 10.3027 11.2884 10.3027 12.5C10.3027 13.7116 11.2884 14.6973 12.5 14.6973ZM6.64062 14.6973C7.8522 14.6973 8.83789 13.7116 8.83789 12.5C8.83789 11.2884 7.8522 10.3027 6.64062 10.3027C5.42905 10.3027 4.44336 11.2884 4.44336 12.5C4.44336 13.7116 5.42905 14.6973 6.64062 14.6973Z" fill="#212121"/>
<path d="M12.5 13.2324C12.0955 13.2324 11.7676 12.9045 11.7676 12.5C11.7676 12.0955 12.0955 11.7676 12.5 11.7676C12.9045 11.7676 13.2324 12.0955 13.2324 12.5C13.2324 12.9045 12.9045 13.2324 12.5 13.2324Z" fill="#212121"/>
<path d="M18.3594 13.2324C17.9549 13.2324 17.627 12.9045 17.627 12.5C17.627 12.0955 17.9549 11.7676 18.3594 11.7676C18.7639 11.7676 19.0918 12.0955 19.0918 12.5C19.0918 12.9045 18.7639 13.2324 18.3594 13.2324Z" fill="#212121"/>
</svg>
