<svg width="16" height="16" viewBox="0 0 16 16" fill="none" xmlns="http://www.w3.org/2000/svg">
<g clip-path="url(#clip0_8_1163)">
<g clip-path="url(#clip1_8_1163)">
<path d="M15.231 2.84085C15.1175 2.64667 14.9898 2.46113 14.849 2.28575C14.7821 2.20249 14.72 2.12249 14.6514 2.04412L14.4441 1.83351C14.4235 1.8127 14.3987 1.79646 14.3715 1.78583C14.3442 1.77521 14.315 1.77043 14.2857 1.77181C14.2565 1.7732 14.2278 1.78072 14.2017 1.79387C14.1755 1.80703 14.1524 1.82554 14.1339 1.8482C14.0977 1.88669 14.076 1.93651 14.0725 1.98919C14.0689 2.04187 14.0837 2.09416 14.1143 2.13718L14.2857 2.34616C14.3412 2.41963 14.3902 2.50126 14.449 2.57963C14.5627 2.74655 14.6647 2.92111 14.7543 3.10208C14.9568 3.50531 15.1014 3.93513 15.1837 4.37881C15.2769 4.87845 15.2929 5.38943 15.231 5.89391C15.1644 6.44438 14.9984 6.97818 14.7412 7.46943C14.1721 8.55943 13.1958 9.38082 12.0245 9.75514C11.4086 9.95143 10.7582 10.0154 10.1159 9.94289C9.46016 9.86901 8.82749 9.657 8.2596 9.32085C8.20748 9.29074 8.14981 9.27146 8.09005 9.26417C8.0303 9.25688 7.96969 9.26172 7.91185 9.27841L6.84899 9.58534L6.31675 9.73881L6.28409 9.74861H6.26287H6.25307C6.25253 9.74537 6.25253 9.74205 6.25307 9.73881C6.25231 9.73121 6.25231 9.72356 6.25307 9.71596L6.26287 9.6833L6.40491 9.14289L6.71022 8.0833C6.72684 8.02503 6.73136 7.96397 6.7235 7.90388C6.71563 7.84379 6.69556 7.78595 6.6645 7.73391C6.27184 7.06656 6.05149 6.31195 6.02332 5.53816C5.99515 4.76437 6.16005 3.99574 6.50315 3.3016C6.84626 2.60746 7.35676 2.00965 7.98861 1.5621C8.62047 1.11455 9.3538 0.831331 10.1225 0.737996C10.6248 0.680356 11.1329 0.699625 11.6294 0.795139C12.4503 0.956322 13.216 1.32568 13.8531 1.86779C13.8997 1.90035 13.9569 1.91407 14.0132 1.90619C14.0696 1.89832 14.1208 1.86944 14.1567 1.82534C14.193 1.7879 14.2132 1.73784 14.2132 1.68575C14.2132 1.63366 14.193 1.58361 14.1567 1.54616C13.4993 0.882824 12.6708 0.414861 11.7633 0.194323C11.2041 0.0565133 10.6265 0.00856683 10.0523 0.052282C9.41542 0.103084 8.79309 0.269039 8.21552 0.542078C7.59077 0.841852 7.02891 1.25799 6.56001 1.7682C6.31492 2.03606 6.09622 2.32693 5.90695 2.63677C5.7178 2.95827 5.56137 3.29793 5.44001 3.65065C5.19736 4.36145 5.1043 5.11474 5.16668 5.86322C5.22905 6.6117 5.44551 7.3392 5.80246 8.00004L5.55103 8.88983L5.38777 9.42208L5.37797 9.45473L5.36654 9.49881C5.35536 9.54228 5.34718 9.58647 5.34205 9.63106C5.33141 9.72191 5.33472 9.81386 5.35185 9.90371C5.38589 10.083 5.4728 10.248 5.60141 10.3775C5.73001 10.507 5.89442 10.595 6.07348 10.6302C6.20861 10.655 6.34759 10.6488 6.48001 10.6123H6.53062L6.56328 10.6025L7.09552 10.4474L7.98042 10.1878C8.63398 10.5429 9.35359 10.7597 10.0945 10.8249C10.8354 10.8901 11.5819 10.8021 12.2874 10.5666C12.9875 10.3358 13.6315 9.96096 14.178 9.46616C14.6934 9.00096 15.1157 8.4419 15.4221 7.81881C15.7056 7.24143 15.8794 6.61641 15.9347 5.97555C15.9831 5.39523 15.9379 4.81091 15.8008 4.24494C15.6818 3.75116 15.4898 3.27792 15.231 2.84085Z" fill="#FDCD03"/>
<path d="M0.388579 10.2252L0.45715 10.3787L0.525721 10.5142C0.711905 10.8842 0.917919 11.2439 1.14286 11.5917C2.04481 12.9771 3.2481 14.1407 4.66286 14.9958C4.83484 15.0992 5.00899 15.1977 5.18531 15.2913C5.36164 15.3827 5.54123 15.4742 5.7094 15.5542C5.7894 15.595 5.89552 15.6391 5.99021 15.6815C6.08491 15.724 6.1894 15.755 6.28899 15.7909C6.38858 15.8268 6.49307 15.8464 6.59429 15.8742C6.69552 15.9019 6.80164 15.9117 6.9045 15.9297C7.71417 16.0379 8.53689 15.8748 9.24409 15.466C9.32939 15.4165 9.41171 15.3619 9.49062 15.3027C9.57061 15.2495 9.64747 15.1917 9.72082 15.1297C9.79577 15.0708 9.86718 15.0076 9.9347 14.9403L10.0359 14.844L10.1241 14.7542L10.1682 14.7085L10.2237 14.6448C10.2618 14.6032 10.2962 14.5584 10.3265 14.5109C10.3594 14.465 10.3884 14.4164 10.4131 14.3656C10.4396 14.3164 10.462 14.265 10.48 14.2121C10.5916 13.9099 10.5953 13.5785 10.4906 13.2738C10.3859 12.9692 10.1791 12.71 9.90531 12.5403L9.77307 12.4685L9.66858 12.4195L9.4694 12.3346L9.07266 12.155L8.31021 11.8154L7.95103 11.6521C7.87637 11.6158 7.79812 11.5874 7.71756 11.5672C7.5891 11.538 7.45576 11.5374 7.32706 11.5656C7.19836 11.5939 7.07749 11.6502 6.97307 11.7305C6.94024 11.7562 6.90915 11.784 6.88001 11.8138L6.81797 11.8791L6.70368 12.0032L6.27593 12.4701C6.26413 12.4848 6.25477 12.5014 6.24817 12.5191C6.23755 12.5082 6.22546 12.4989 6.21225 12.4913C5.37515 12.0778 4.65793 11.4567 4.12899 10.6872C3.97226 10.4558 3.83414 10.2123 3.71593 9.95908C3.68491 9.8954 3.65715 9.83173 3.6294 9.76642L3.79266 9.60316L4.14368 9.2652L4.23184 9.17867C4.27858 9.13226 4.32069 9.08141 4.35756 9.02683C4.43308 8.91605 4.48529 8.79107 4.51103 8.65948C4.5503 8.45799 4.52635 8.24929 4.44246 8.06193L4.38531 7.93785L4.16654 7.46765L3.72246 6.50928L3.60817 6.26275L3.57878 6.20397C3.56899 6.18438 3.55103 6.1501 3.53633 6.12397C3.50751 6.06665 3.47364 6.01201 3.43511 5.96071C3.3198 5.80122 3.17323 5.66688 3.00432 5.56587C2.83541 5.46486 2.64771 5.3993 2.45264 5.37318C2.25758 5.34706 2.05924 5.36093 1.86971 5.41394C1.68017 5.46695 1.50342 5.55799 1.35021 5.68152C1.30123 5.72151 1.25437 5.76402 1.2098 5.80887L1.10042 5.92479C1.02683 6.00253 0.957608 6.08429 0.893068 6.16969C0.759205 6.33932 0.64013 6.52012 0.53715 6.7101C0.110431 7.48916 -0.0424953 8.3889 0.102864 9.2652C0.137956 9.48727 0.19259 9.7058 0.26613 9.91826C0.300935 10.0229 0.341821 10.1254 0.388579 10.2252ZM1.30613 7.12152C1.38301 6.97156 1.47259 6.82845 1.57388 6.69377C1.6244 6.62582 1.67892 6.56095 1.73715 6.49948L1.82205 6.40642C1.85144 6.3705 1.86776 6.36561 1.89062 6.34112C1.95505 6.28789 2.02959 6.24826 2.10975 6.22463C2.18991 6.201 2.27403 6.19385 2.35702 6.20362C2.44002 6.21338 2.52018 6.23986 2.59267 6.28145C2.66516 6.32304 2.72847 6.37888 2.77878 6.44561C2.79673 6.46713 2.81208 6.49069 2.8245 6.51581C2.8245 6.5305 2.83756 6.5354 2.84735 6.55663L2.87837 6.61703L2.99429 6.85704L3.46776 7.8105L3.6996 8.27418L3.75348 8.38193C3.76092 8.39656 3.76694 8.41187 3.77144 8.42765C3.7779 8.45998 3.7779 8.49327 3.77144 8.52561C3.76647 8.55864 3.75481 8.59031 3.73715 8.61867C3.72861 8.63313 3.71877 8.6468 3.70776 8.65948L3.62286 8.74765L3.28491 9.09867L3.12164 9.2701L3.04001 9.35499L2.99919 9.39744L2.9796 9.41867L2.9698 9.42846C2.9845 9.34846 2.82123 10.1436 2.89307 9.8105C2.96001 9.96234 3.02695 10.1125 3.10368 10.2546C3.24932 10.5319 3.4175 10.7967 3.60654 11.0464C4.2286 11.8793 5.07204 12.5208 6.04082 12.8979C6.06644 12.9066 6.09353 12.9102 6.12054 12.9084C6.14754 12.9066 6.17394 12.8996 6.1982 12.8876C6.22247 12.8756 6.24413 12.8589 6.26195 12.8386C6.27977 12.8182 6.2934 12.7945 6.30205 12.7689C6.30205 12.7689 6.30205 12.7787 6.31348 12.7836C6.35111 12.8195 6.40055 12.8405 6.45254 12.8426C6.50454 12.8447 6.55551 12.8278 6.59593 12.795L7.06286 12.3672L7.18368 12.2448L7.24409 12.1893L7.28491 12.1583C7.34252 12.1218 7.40936 12.1025 7.47756 12.1027C7.51193 12.1031 7.54605 12.1086 7.57878 12.1191C7.62015 12.1338 7.66005 12.1524 7.69797 12.1746L8.04572 12.3558L8.78695 12.7346L9.17552 12.9338L9.3747 13.035L9.47266 13.0856L9.5396 13.1248C9.62498 13.1832 9.69615 13.26 9.74787 13.3496C9.79958 13.4392 9.83051 13.5392 9.83838 13.6423C9.84649 13.7476 9.82971 13.8533 9.7894 13.9509C9.7805 13.9755 9.769 13.999 9.75511 14.0211C9.7435 14.0449 9.72926 14.0674 9.71266 14.0881C9.69828 14.1107 9.6813 14.1315 9.66205 14.1501L9.63429 14.1795L9.58858 14.2236L9.49878 14.3117L9.41389 14.3868C9.35928 14.4383 9.30148 14.4863 9.24082 14.5305C9.12023 14.6237 8.99249 14.7072 8.85878 14.7803C8.29959 15.0862 7.65573 15.2008 7.02531 15.1068C6.94531 15.0905 6.86205 15.0774 6.78695 15.0595C6.71184 15.0415 6.62368 15.0187 6.55185 14.9909C6.48001 14.9632 6.38858 14.9403 6.32327 14.9027C6.25797 14.8652 6.17797 14.8391 6.0898 14.7917C5.91674 14.7068 5.76327 14.6285 5.60001 14.5338C5.43674 14.4391 5.27348 14.3525 5.12164 14.2546C3.82867 13.4528 2.72784 12.3765 1.89715 11.1019C1.69003 10.7812 1.49983 10.4499 1.32735 10.1093L1.26205 9.97867L1.20817 9.85948C1.17096 9.78107 1.13879 9.70036 1.11184 9.61785C1.05328 9.45549 1.00903 9.28833 0.979599 9.11826C0.863622 8.43489 0.97851 7.73235 1.30613 7.12152Z" fill="#FDCD03"/>
<path d="M11.2833 5.63925L11.3159 5.62619L11.3796 5.59517C11.4234 5.575 11.466 5.5521 11.5069 5.5266C11.5951 5.47646 11.6782 5.41796 11.7551 5.3519C11.9135 5.21376 12.0452 5.04775 12.1437 4.86211C12.3497 4.47135 12.4021 4.0177 12.2906 3.59027C12.1767 3.16151 11.9034 2.79243 11.5265 2.55843C11.346 2.44944 11.1466 2.37523 10.9388 2.33966C10.7469 2.30735 10.551 2.30735 10.3592 2.33966C10.022 2.38864 9.70982 2.5456 9.4694 2.787C9.29447 2.96418 9.17187 3.18621 9.11511 3.42864C9.11511 3.45639 9.19838 3.51517 9.3143 3.55925C9.37597 3.59225 9.44519 3.60857 9.51511 3.6066C9.61846 3.47739 9.74327 3.36693 9.88409 3.28007C10.0524 3.16985 10.2479 3.10827 10.449 3.10211C10.5561 3.10102 10.6627 3.11532 10.7657 3.14456C10.9227 3.19149 11.0651 3.27777 11.1794 3.39521C11.2937 3.51265 11.3761 3.65735 11.4188 3.81558C11.4613 3.97649 11.4616 4.14565 11.4195 4.30669C11.3775 4.46773 11.2945 4.61518 11.1788 4.73476C11.1429 4.77358 11.1035 4.80909 11.0612 4.84088C11.0412 4.85767 11.0199 4.87295 10.9976 4.8866L10.9633 4.90945L10.8996 4.947C10.7455 5.04117 10.6118 5.16524 10.5063 5.31188C10.4009 5.45853 10.3259 5.62479 10.2857 5.80088C10.2541 5.94068 10.248 6.08504 10.2678 6.227C10.2841 6.32986 10.3021 6.42292 10.32 6.50456C10.32 6.52741 10.4343 6.547 10.56 6.54537C10.6857 6.54374 10.7657 6.53068 10.7755 6.50619C10.7951 6.42292 10.8114 6.32986 10.8278 6.227C10.8428 6.1467 10.8697 6.0691 10.9078 5.9968C10.9884 5.83822 11.1209 5.71204 11.2833 5.63925Z" fill="#FDCD03"/>
<path d="M10.5453 8.42121C10.7987 8.42121 11.0041 8.21581 11.0041 7.96244C11.0041 7.70906 10.7987 7.50366 10.5453 7.50366C10.2919 7.50366 10.0865 7.70906 10.0865 7.96244C10.0865 8.21581 10.2919 8.42121 10.5453 8.42121Z" fill="#FDCD03"/>
</g>
</g>
<defs>
<clipPath id="clip0_8_1163">
<rect width="16" height="16" fill="white"/>
</clipPath>
<clipPath id="clip1_8_1163">
<rect width="16" height="16" fill="white"/>
</clipPath>
</defs>
</svg>
