<svg width="16" height="15" viewBox="0 0 16 15" fill="none" xmlns="http://www.w3.org/2000/svg">
<g clip-path="url(#clip0_8_1155)">
<path fill-rule="evenodd" clip-rule="evenodd" d="M3.98888 10.674C3.82964 10.674 3.68253 10.5891 3.60292 10.4512C3.52331 10.3133 3.5233 10.1434 3.60292 10.0055C3.68254 9.86762 3.82965 9.78266 3.98888 9.78266H9.33707C9.49631 9.78266 9.64342 9.86762 9.72303 10.0055C9.80264 10.1434 9.80265 10.3133 9.72303 10.4512C9.64341 10.5891 9.4963 10.674 9.33707 10.674H3.98888ZM3.98888 12.4568C3.82964 12.4568 3.68253 12.3718 3.60292 12.2339C3.52331 12.096 3.5233 11.9261 3.60292 11.7882C3.68254 11.6504 3.82965 11.5654 3.98888 11.5654H13.3482C13.5075 11.5654 13.6546 11.6503 13.7342 11.7882C13.8138 11.9261 13.8138 12.096 13.7342 12.2339C13.6546 12.3718 13.5074 12.4568 13.3482 12.4568H3.98888ZM11.5655 2.65174H11.1198C10.9606 2.65174 10.8135 2.56678 10.7338 2.4289C10.6542 2.29102 10.6542 2.1211 10.7338 1.98322C10.8135 1.84534 10.9606 1.76038 11.1198 1.76038H12.0112C12.1297 1.76038 12.2433 1.80756 12.3269 1.89153C12.4106 1.9755 12.4573 2.08935 12.4568 2.20786V6.66468C12.4564 6.78254 12.4092 6.89547 12.3257 6.97863C12.2421 7.06185 12.1291 7.10857 12.0112 7.10857H11.1198C10.9606 7.10857 10.8135 7.02361 10.7338 6.88573C10.6542 6.74784 10.6542 6.57792 10.7338 6.44004C10.8135 6.30216 10.9606 6.2172 11.1198 6.2172H11.5655V2.65174ZM6.55601 6.0728C6.43972 6.05307 6.32608 6.02016 6.21728 5.97472C6.03384 5.90433 5.87211 5.78693 5.74844 5.63425C5.65547 5.51802 5.60289 5.37473 5.59866 5.22601C5.59767 5.13832 5.63243 5.054 5.69493 4.99243C5.75964 4.92813 5.84796 4.89331 5.93918 4.89615C6.01149 4.89128 6.08292 4.9142 6.13882 4.96033C6.19238 5.01204 6.23701 5.07228 6.27078 5.13861C6.34187 5.28229 6.45497 5.40096 6.59506 5.47896C6.73509 5.55695 6.89555 5.59061 7.05514 5.57541C7.2001 5.58295 7.34367 5.54424 7.46519 5.46486C7.55741 5.4135 7.61717 5.31885 7.62386 5.21352C7.63111 5.08707 7.5707 4.96624 7.46519 4.89615C7.29673 4.80835 7.11666 4.7447 6.93038 4.7072C6.68693 4.65282 6.44837 4.57831 6.21728 4.48436C6.05283 4.41762 5.90676 4.31247 5.79121 4.17771C5.68252 4.04685 5.62548 3.88071 5.63075 3.71067C5.63179 3.5436 5.68338 3.38076 5.77873 3.24358C5.88719 3.08539 6.03877 2.96161 6.21547 2.88703C6.33687 2.8326 6.46529 2.7954 6.59697 2.77648C6.58415 2.73307 6.57753 2.6881 6.57736 2.64278V2.19709C6.57898 2.03791 6.66539 1.89162 6.80409 1.81339C6.94279 1.73516 7.11265 1.73685 7.24977 1.81786C7.38685 1.89881 7.47036 2.04679 7.46872 2.20603V2.65172C7.46867 2.70603 7.45839 2.75989 7.43843 2.81038L7.4848 2.82106C7.63545 2.85727 7.7793 2.91751 7.91087 2.99933C8.01713 3.06357 8.10835 3.14993 8.17828 3.25252C8.23405 3.33005 8.26515 3.42261 8.26742 3.51813C8.27078 3.60541 8.23637 3.68986 8.17294 3.74992C8.09796 3.81451 8.0007 3.84712 7.90194 3.8408C7.82371 3.84236 7.7474 3.81654 7.68623 3.76773C7.60922 3.70071 7.53987 3.62538 7.47946 3.5431C7.41835 3.47027 7.3439 3.4098 7.26015 3.36482C7.15361 3.31155 7.03516 3.28636 6.91609 3.2917C6.78575 3.28665 6.65674 3.32014 6.54526 3.38798C6.45787 3.43243 6.40082 3.52006 6.39554 3.61795C6.39444 3.70233 6.43518 3.78171 6.50429 3.83011C6.59239 3.8936 6.69151 3.94014 6.79666 3.96735C6.91969 4.00298 7.08723 4.04755 7.30293 4.09926V4.09932C7.52008 4.14783 7.73028 4.22333 7.92868 4.3239C8.07388 4.39522 8.20026 4.49961 8.29771 4.62874C8.38104 4.74643 8.42474 4.88751 8.42253 5.03166C8.43246 5.24028 8.37367 5.44641 8.25516 5.61841C8.13666 5.79036 7.96495 5.91867 7.76647 5.98366C7.66155 6.02411 7.55286 6.05394 7.44202 6.0728V6.11737V6.67C7.43946 6.82924 7.35212 6.97501 7.21296 7.05242C7.0738 7.12978 6.90388 7.12711 6.76728 7.04529C6.63068 6.96346 6.54809 6.81496 6.55065 6.65572V6.10308C6.55152 6.09287 6.55332 6.08271 6.55599 6.07279L6.55601 6.0728ZM1.76047 2.20784C1.76047 2.08963 1.80742 1.97623 1.89098 1.89267C1.97461 1.8091 2.08794 1.76215 2.20615 1.76215H3.09752C3.25676 1.76215 3.40387 1.84711 3.48348 1.985C3.56309 2.12288 3.5631 2.2928 3.48348 2.43068C3.40386 2.56856 3.25675 2.65352 3.09752 2.65352H2.65184V6.2172H3.09752C3.25676 6.2172 3.40387 6.30216 3.48348 6.44004C3.56309 6.57792 3.5631 6.74784 3.48348 6.88572C3.40386 7.0236 3.25675 7.10856 3.09752 7.10856H2.20615C2.08794 7.10856 1.97461 7.06161 1.89098 6.97805C1.80742 6.89442 1.76047 6.78109 1.76047 6.66288V2.20784ZM13.3767 5.7733V2.14901C13.3772 1.80135 13.2393 1.46778 12.9934 1.22196C12.7476 0.976137 12.414 0.838258 12.0664 0.838719H2.14906C1.8014 0.838255 1.46783 0.976137 1.22201 1.22196C0.976187 1.46778 0.838307 1.80135 0.838768 2.14901V6.72171C0.838304 7.06937 0.976187 7.40289 1.22201 7.64876C1.46783 7.89459 1.8014 8.03246 2.14906 8.032H12.0682C12.4158 8.03247 12.7494 7.89459 12.9952 7.64876C13.241 7.40288 13.3789 7.06937 13.3785 6.72171V5.7733H13.3767ZM14.2039 6.25287V6.72531V6.72525C14.2039 7.29262 13.9785 7.83678 13.5773 8.2379C13.1761 8.63907 12.632 8.86447 12.0646 8.86447H2.1491C1.58174 8.86447 1.03763 8.63907 0.636458 8.2379C0.235284 7.83672 0.0098877 7.29256 0.0098877 6.72525V2.14898C0.0098877 1.58161 0.235284 1.03751 0.636458 0.636336C1.03769 0.235162 1.58179 0.00976562 2.1491 0.00976562H12.0682C12.6356 0.00976562 13.1797 0.235162 13.5809 0.636336C13.982 1.03757 14.2074 1.58167 14.2074 2.14898V5.39712C14.7089 5.49362 15.1611 5.76167 15.4864 6.1553C15.8117 6.54892 15.9898 7.04353 15.9902 7.5542V12.011C15.9892 12.5934 15.7572 13.1516 15.3451 13.563C14.933 13.9745 14.3744 14.2056 13.792 14.2056H3.98701C3.4053 14.2042 2.84784 13.9722 2.43678 13.5605C2.02574 13.1488 1.79471 12.591 1.79425 12.0093V10.2265C1.79425 10.0788 1.87306 9.94224 2.00102 9.86838C2.12898 9.79451 2.28666 9.79451 2.41461 9.86838C2.54257 9.94226 2.62144 10.0788 2.62144 10.2265V12.0093C2.62045 12.3724 2.7642 12.7209 3.02076 12.9778C3.27736 13.2347 3.62568 13.3789 3.98878 13.3784H13.7938C14.1569 13.3784 14.5051 13.2342 14.7619 12.9774C15.0187 12.7206 15.1629 12.3724 15.1629 12.0093V7.55245C15.1629 7.26166 15.0703 6.97846 14.8984 6.74377C14.7266 6.50915 14.4846 6.33535 14.2074 6.24749L14.2039 6.25287Z" fill="#FDCD03"/>
</g>
<defs>
<clipPath id="clip0_8_1155">
<rect width="16" height="14.2061" fill="white"/>
</clipPath>
</defs>
</svg>
