<svg width="26" height="30" viewBox="0 0 26 30" fill="none" xmlns="http://www.w3.org/2000/svg">
<path fill-rule="evenodd" clip-rule="evenodd" d="M11.1168 7.06055H19.3331C23.744 7.06055 25.4049 9.36029 25.1484 12.7446C24.7255 18.3236 21.4505 21.4085 17.1065 21.4085H14.9133C14.318 21.4085 13.9174 21.8138 13.7554 22.9154L12.8145 29.3111C12.7534 29.7265 12.5412 29.9705 12.2225 30H7.07055C6.58579 30 6.41332 29.618 6.54022 28.7908L9.68635 8.27423C9.8124 7.45203 10.2491 7.06055 11.1168 7.06055Z" fill="#009DE2"/>
<path fill-rule="evenodd" clip-rule="evenodd" d="M5.98015 0H14.2046C16.5211 0 19.2683 0.07745 21.1062 1.74688C22.3339 2.86209 22.9782 4.63887 22.8294 6.54633C22.3251 13.0145 18.5686 16.6372 13.5312 16.6372H9.47487C8.78447 16.6372 8.32684 17.1084 8.13212 18.3845L7.00021 25.8006C6.92681 26.2818 6.72429 26.5653 6.3546 26.5995H1.28829C0.726105 26.5995 0.526233 26.1566 0.673341 25.1973L4.32151 1.40733C4.46771 0.45395 4.97403 0 5.98015 0Z" fill="#113984"/>
<path fill-rule="evenodd" clip-rule="evenodd" d="M8.25 17.6369L9.68633 8.27417C9.81238 7.45197 10.2491 7.06055 11.1168 7.06055H19.3331C20.6932 7.06055 21.792 7.27922 22.6533 7.68233C21.8277 13.4387 18.2129 16.6373 13.4788 16.6373H9.42251C8.88846 16.6373 8.48961 16.9182 8.25 17.6369Z" fill="#172C70"/>
</svg>
