<svg width="13" height="13" viewBox="0 0 13 13" fill="none" xmlns="http://www.w3.org/2000/svg">
<g clip-path="url(#clip0_8_501)">
<path d="M8.61954 3.7063C8.42391 3.7063 8.23267 3.76431 8.07001 3.873C7.90735 3.98168 7.78057 4.13617 7.7057 4.31691C7.63084 4.49765 7.61125 4.69653 7.64942 4.8884C7.68758 5.08027 7.78179 5.25652 7.92012 5.39485C8.05845 5.53318 8.2347 5.62739 8.42657 5.66555C8.61844 5.70372 8.81733 5.68413 8.99807 5.60927C9.17881 5.5344 9.33329 5.40762 9.44197 5.24496C9.55066 5.0823 9.60867 4.89106 9.60867 4.69543C9.60867 4.4331 9.50446 4.18151 9.31896 3.99601C9.13346 3.81051 8.88188 3.7063 8.61954 3.7063ZM8.61954 5.11934C8.5357 5.11934 8.45374 5.09448 8.38403 5.0479C8.31432 5.00132 8.25998 4.93511 8.2279 4.85765C8.19581 4.78019 8.18742 4.69496 8.20377 4.61273C8.22013 4.5305 8.2605 4.45496 8.31979 4.39568C8.37908 4.33639 8.45461 4.29602 8.53684 4.27966C8.61907 4.2633 8.70431 4.2717 8.78177 4.30378C8.85923 4.33587 8.92543 4.3902 8.97201 4.45992C9.01859 4.52963 9.04345 4.61159 9.04345 4.69543C9.04383 4.75134 9.03314 4.80676 9.012 4.85852C8.99086 4.91028 8.9597 4.95735 8.9203 4.99701C8.8809 5.03667 8.83404 5.06815 8.78242 5.08963C8.7308 5.11111 8.67545 5.12217 8.61954 5.12217V5.11934Z" fill="#3A3B3D"/>
<path d="M6.35872 3.42943C6.55435 3.42943 6.74559 3.37142 6.90825 3.26273C7.07091 3.15405 7.19769 2.99957 7.27256 2.81883C7.34742 2.63809 7.36701 2.43921 7.32884 2.24733C7.29068 2.05546 7.19647 1.87921 7.05814 1.74088C6.91981 1.60255 6.74356 1.50834 6.55169 1.47018C6.35982 1.43201 6.16094 1.4516 5.9802 1.52647C5.79946 1.60133 5.64497 1.72811 5.53629 1.89077C5.4276 2.05343 5.36959 2.24467 5.36959 2.4403C5.36959 2.70264 5.4738 2.95423 5.6593 3.13972C5.8448 3.32522 6.09639 3.42943 6.35872 3.42943ZM6.35872 2.01639C6.44256 2.01639 6.52452 2.04125 6.59423 2.08783C6.66394 2.13441 6.71828 2.20062 6.75036 2.27808C6.78245 2.35554 6.79084 2.44077 6.77449 2.523C6.75813 2.60523 6.71776 2.68077 6.65847 2.74005C6.59919 2.79934 6.52365 2.83971 6.44142 2.85607C6.35919 2.87243 6.27395 2.86403 6.19649 2.83195C6.11903 2.79986 6.05283 2.74553 6.00625 2.67582C5.95967 2.6061 5.93481 2.52414 5.93481 2.4403C5.93443 2.3844 5.94512 2.32897 5.96626 2.27721C5.9874 2.22545 6.01856 2.17839 6.05796 2.13872C6.09736 2.09906 6.14422 2.06758 6.19584 2.0461C6.24746 2.02462 6.30281 2.01356 6.35872 2.01356V2.01639Z" fill="#3A3B3D"/>
<path d="M5.58577 5.42744C5.63872 5.48007 5.71035 5.50962 5.78501 5.50962C5.85967 5.50962 5.9313 5.48007 5.98425 5.42744L9.34871 2.06298C9.37703 2.03723 9.39983 2.00598 9.41571 1.97115C9.43159 1.93632 9.44023 1.89862 9.44111 1.86035C9.44198 1.82208 9.43507 1.78402 9.42079 1.7485C9.40652 1.71298 9.38517 1.68073 9.35805 1.65371C9.33094 1.62669 9.29861 1.60546 9.26304 1.59131C9.22747 1.57715 9.18939 1.57038 9.15112 1.57139C9.11285 1.5724 9.07519 1.58117 9.04041 1.59718C9.00563 1.61318 8.97447 1.63609 8.94882 1.6645L5.58577 5.02755C5.5595 5.05379 5.53865 5.08496 5.52443 5.11927C5.51021 5.15358 5.50289 5.19035 5.50289 5.22749C5.50289 5.26463 5.51021 5.30141 5.52443 5.33571C5.53865 5.37002 5.5595 5.40119 5.58577 5.42744Z" fill="#3A3B3D"/>
<path d="M12.7061 7.8663C12.5715 7.75408 12.4062 7.68502 12.2318 7.66813C12.0573 7.65124 11.8819 7.68731 11.7283 7.77163L9.39674 8.97837C9.38815 8.88604 9.36427 8.79579 9.32609 8.7113C9.26622 8.59309 9.18281 8.48837 9.081 8.40356C8.97918 8.31876 8.86111 8.25566 8.73402 8.21815C8.69685 8.20752 8.65789 8.20464 8.61956 8.20967C7.42837 8.35097 7.30543 8.29021 6.71902 7.97369C6.54804 7.88184 6.33467 7.77163 6.05348 7.63032C4.96685 7.11739 3.90848 7.63032 3.45065 7.91293C3.37196 7.82494 3.27576 7.75435 3.16821 7.70569C3.06066 7.65702 2.94413 7.63135 2.82609 7.63032H0.847828C0.622971 7.63032 0.407323 7.71965 0.248325 7.87864C0.0893269 8.03764 2.6226e-06 8.25329 2.6226e-06 8.47815V9.32597C2.6226e-06 9.40093 0.0297774 9.47281 0.0827767 9.52581C0.135776 9.57881 0.207659 9.60858 0.282611 9.60858C0.357564 9.60858 0.429446 9.57881 0.482446 9.52581C0.535445 9.47281 0.56522 9.40093 0.56522 9.32597V8.47815C0.56522 8.4032 0.594994 8.33131 0.647994 8.27831C0.700993 8.22531 0.772876 8.19554 0.847828 8.19554H2.82609C2.90104 8.19554 2.97292 8.22531 3.02592 8.27831C3.07892 8.33131 3.1087 8.4032 3.1087 8.47815V12.1521C3.1087 12.227 3.07892 12.2989 3.02592 12.3519C2.97292 12.4049 2.90104 12.4347 2.82609 12.4347H0.847828C0.772876 12.4347 0.700993 12.4049 0.647994 12.3519C0.594994 12.2989 0.56522 12.227 0.56522 12.1521V10.739C0.56522 10.6641 0.535445 10.5922 0.482446 10.5392C0.429446 10.4862 0.357564 10.4564 0.282611 10.4564C0.207659 10.4564 0.135776 10.4862 0.0827767 10.5392C0.0297774 10.5922 2.6226e-06 10.6641 2.6226e-06 10.739V12.1521C2.6226e-06 12.3769 0.0893269 12.5926 0.248325 12.7516C0.407323 12.9106 0.622971 12.9999 0.847828 12.9999H2.82609C3.05095 12.9999 3.26659 12.9106 3.42559 12.7516C3.58459 12.5926 3.67391 12.3769 3.67391 12.1521V11.9345H7.37326C7.91302 11.9327 8.44192 11.7826 8.90217 11.5006L12.5761 9.26521C12.7302 9.17009 12.8516 9.03032 12.9243 8.86448C12.997 8.69865 13.0175 8.51461 12.983 8.33684C12.9451 8.15375 12.8478 7.98832 12.7061 7.8663ZM12.2822 8.78195L8.60967 11.0216C8.23762 11.2501 7.80987 11.3718 7.37326 11.3735H3.67391V8.47815C3.67391 8.46402 3.67391 8.4513 3.67391 8.43717C3.97913 8.2351 4.9075 7.71369 5.81326 8.14326C6.08174 8.27043 6.27956 8.37782 6.45337 8.47108C7.1288 8.83565 7.36761 8.92891 8.62239 8.77913C8.70301 8.81309 8.76975 8.87336 8.81174 8.9501C8.85191 9.07283 8.84175 9.20649 8.78348 9.32173C8.57576 9.48282 8.01337 9.81347 6.91543 9.81347C6.84048 9.81347 6.7686 9.84325 6.7156 9.89625C6.6626 9.94925 6.63283 10.0211 6.63283 10.0961C6.63283 10.171 6.6626 10.2429 6.7156 10.2959C6.7686 10.3489 6.84048 10.3787 6.91543 10.3787C8.21261 10.3787 8.89369 9.95478 9.1763 9.73293L11.9868 8.2676C12.0405 8.23586 12.1025 8.22128 12.1646 8.22583C12.2268 8.23037 12.286 8.25383 12.3345 8.29304C12.3855 8.33357 12.4209 8.39047 12.4348 8.45413C12.4455 8.51749 12.437 8.58261 12.4103 8.64107C12.3836 8.69952 12.3399 8.7486 12.285 8.78195H12.2822Z" fill="#3A3B3D"/>
<path d="M7.34783 7.34783C8.07446 7.34783 8.78477 7.13235 9.38895 6.72866C9.99312 6.32497 10.464 5.75118 10.7421 5.07986C11.0202 4.40854 11.0929 3.66984 10.9511 2.95717C10.8094 2.2445 10.4595 1.58987 9.94568 1.07607C9.43187 0.56226 8.77724 0.212354 8.06458 0.0705948C7.35191 -0.0711639 6.61321 0.00159185 5.94189 0.279662C5.27057 0.557731 4.69678 1.02863 4.29308 1.6328C3.88939 2.23697 3.67392 2.94728 3.67392 3.67391C3.67392 4.6483 4.06099 5.58277 4.74998 6.27176C5.43897 6.96075 6.37345 7.34783 7.34783 7.34783ZM7.34783 0.565219C7.96267 0.565219 8.56371 0.747541 9.07493 1.08913C9.58615 1.43072 9.9846 1.91623 10.2199 2.48427C10.4552 3.05231 10.5167 3.67736 10.3968 4.28039C10.2768 4.88342 9.98077 5.43733 9.54601 5.87209C9.11125 6.30685 8.55733 6.60293 7.95431 6.72288C7.35128 6.84282 6.72622 6.78126 6.15818 6.54597C5.59014 6.31068 5.10463 5.91223 4.76305 5.40101C4.42146 4.88979 4.23914 4.28875 4.23914 3.67391C4.23914 2.84944 4.56666 2.05873 5.14965 1.47573C5.73264 0.892741 6.52335 0.565219 7.34783 0.565219Z" fill="#3A3B3D"/>
</g>
<defs>
<clipPath id="clip0_8_501">
<rect width="13" height="13" fill="white"/>
</clipPath>
</defs>
</svg>
