<svg width="18" height="18" viewBox="0 0 18 18" fill="none" xmlns="http://www.w3.org/2000/svg">
<path d="M2.63597 2.64208C3.45975 1.78979 4.4497 1.11564 5.54453 0.66137C6.63936 0.207097 7.81578 -0.0176365 9.00097 0.00107999C10.1862 -0.0176365 11.3626 0.207097 12.4574 0.66137C13.5522 1.11564 14.5422 1.78979 15.366 2.64208C16.2156 3.4663 16.8877 4.45561 17.3408 5.54919C17.794 6.64276 18.0186 7.81747 18.001 9.00108C18.0186 10.1847 17.794 11.3594 17.3408 12.453C16.8877 13.5465 16.2156 14.5359 15.366 15.3601C14.5422 16.2124 13.5522 16.8865 12.4574 17.3408C11.3626 17.7951 10.1862 18.0198 9.00097 18.0011C7.81578 18.0198 6.63936 17.7951 5.54453 17.3408C4.4497 16.8865 3.45975 16.2124 2.63597 15.3601C1.78631 14.5359 1.11425 13.5465 0.661103 12.453C0.207955 11.3594 -0.0166953 10.1847 0.000966142 9.00108C-0.0166953 7.81747 0.207955 6.64276 0.661103 5.54919C1.11425 4.45561 1.78631 3.4663 2.63597 2.64208ZM12.816 14.4111L11.801 10.0571L15.131 7.14208L10.705 6.76208L8.97997 2.70508L7.25197 6.80508L2.82497 7.14208L6.20097 10.0571L5.18597 14.4111L8.97997 12.1281L12.816 14.4111Z" fill="#FDCD03"/>
</svg>
