<svg width="22" height="23" viewBox="0 0 22 23" fill="none" xmlns="http://www.w3.org/2000/svg">
<path d="M4 14.8851H3.3H4ZM6.73291 18.0834L6.82906 17.3901H6.82906L6.73291 18.0834ZM16.9193 18.0834L16.8231 17.3901H16.8231L16.9193 18.0834ZM4.46647 13.1872L3.86526 12.8287L4.46647 13.1872ZM6.43914 8.08696C6.43914 5.11182 8.85096 2.7 11.8261 2.7V1.3C8.07776 1.3 5.03914 4.33862 5.03914 8.08696H6.43914ZM6.43914 10.1795V8.08696H5.03914V10.1795H6.43914ZM4.7 14.8851C4.7 14.3944 4.83427 13.9371 5.06767 13.5458L3.86526 12.8287C3.50613 13.4309 3.3 14.135 3.3 14.8851H4.7ZM6.82906 17.3901C5.60355 17.2201 4.7 16.1551 4.7 14.8851H3.3C3.3 16.821 4.68685 18.5064 6.63677 18.7768L6.82906 17.3901ZM11.8261 17.822C10.3305 17.822 8.40006 17.6079 6.82906 17.3901L6.63677 18.7768C8.21914 18.9962 10.229 19.222 11.8261 19.222V17.822ZM16.8231 17.3901C15.2521 17.6079 13.3217 17.822 11.8261 17.822V19.222C13.4232 19.222 15.433 18.9962 17.0154 18.7768L16.8231 17.3901ZM18.9522 14.8851C18.9522 16.1551 18.0486 17.2201 16.8231 17.3901L17.0154 18.7768C18.9653 18.5064 20.3522 16.821 20.3522 14.8851H18.9522ZM18.5845 13.5458C18.8179 13.9372 18.9522 14.3944 18.9522 14.8851H20.3522C20.3522 14.135 20.146 13.4309 19.7869 12.8287L18.5845 13.5458ZM17.213 8.08696V10.1795H18.6131V8.08696H17.213ZM11.8261 2.7C14.8012 2.7 17.213 5.11182 17.213 8.08696H18.6131C18.6131 4.33862 15.5744 1.3 11.8261 1.3V2.7ZM19.7869 12.8287C19.4798 12.3138 19.1968 11.8946 18.9643 11.429C18.7411 10.9817 18.6131 10.5778 18.6131 10.1795H17.213C17.213 10.8815 17.4396 11.509 17.7117 12.0542C17.9747 12.5811 18.328 13.1157 18.5845 13.5458L19.7869 12.8287ZM5.03914 10.1795C5.03914 10.5778 4.9111 10.9817 4.68784 11.429C4.45541 11.8946 4.17235 12.3138 3.86526 12.8287L5.06767 13.5458C5.32418 13.1157 5.67745 12.5811 5.94046 12.0542C6.21263 11.509 6.43914 10.8815 6.43914 10.1795H5.03914Z" fill="#FDCD03"/>
<path d="M14 20.834C13.5326 21.5369 12.7335 22.0002 11.8261 22.0002C10.9187 22.0002 10.1195 21.5369 9.65218 20.834" stroke="#FDCD03" stroke-width="1.4" stroke-linecap="round"/>
</svg>
