<svg width="22" height="21" viewBox="0 0 22 21" fill="none" xmlns="http://www.w3.org/2000/svg">
<path d="M2.82489 19.7002L2.35637 19.1146H2.35637L2.82489 19.7002ZM5.65237 17.4383L5.18385 16.8526L5.65237 17.4383ZM1.9502 6C1.9502 3.65279 3.85299 1.75 6.2002 1.75V0.25C3.02456 0.25 0.450195 2.82436 0.450195 6H1.9502ZM1.9502 11.5V6H0.450195V11.5H1.9502ZM1.9502 12V11.5H0.450195V12H1.9502ZM1.9502 18.9194V12H0.450195V18.9194H1.9502ZM2.35637 19.1146C2.19268 19.2455 1.9502 19.129 1.9502 18.9194H0.450195C0.450195 20.3868 2.14758 21.2026 3.29341 20.2859L2.35637 19.1146ZM5.18385 16.8526L2.35637 19.1146L3.29341 20.2859L6.12089 18.0239L5.18385 16.8526ZM16.2002 16.25H6.90176V17.75H16.2002V16.25ZM20.4502 12C20.4502 14.3472 18.5474 16.25 16.2002 16.25V17.75C19.3758 17.75 21.9502 15.1756 21.9502 12H20.4502ZM20.4502 6V12H21.9502V6H20.4502ZM16.2002 1.75C18.5474 1.75 20.4502 3.65279 20.4502 6H21.9502C21.9502 2.82436 19.3758 0.25 16.2002 0.25V1.75ZM6.2002 1.75H16.2002V0.25H6.2002V1.75ZM6.12089 18.0239C6.34253 17.8466 6.61792 17.75 6.90176 17.75V16.25C6.27731 16.25 5.67146 16.4625 5.18385 16.8526L6.12089 18.0239Z" fill="black"/>
<circle cx="6.25" cy="9.0498" r="1.25" fill="black"/>
<circle cx="11.25" cy="9.0498" r="1.25" fill="black"/>
<circle cx="16.25" cy="9.0498" r="1.25" fill="black"/>
</svg>
