<svg width="50" height="24" viewBox="0 0 50 24" fill="none" xmlns="http://www.w3.org/2000/svg">
<path d="M9.54844 16.0354C7.46094 16.0354 5.76794 17.7269 5.76794 19.8154C5.76794 19.9774 5.78094 20.1359 5.80094 20.2909C6.03544 22.1554 7.62194 23.5964 9.54794 23.5964C11.5274 23.5964 13.1489 22.0754 13.3129 20.1384C13.3219 20.0314 13.3294 19.9244 13.3294 19.8154C13.3299 17.7269 11.6374 16.0354 9.54844 16.0354Z" fill="#979797"/>
<path d="M41.9825 16.0354C39.8945 16.0354 38.202 17.7269 38.202 19.8154C38.202 19.9774 38.2145 20.1359 38.2345 20.2909C38.4685 22.1554 40.056 23.5964 41.9815 23.5964C43.9605 23.5964 45.582 22.0754 45.7465 20.1384C45.7555 20.0314 45.762 19.9244 45.762 19.8154C45.763 17.7269 44.071 16.0354 41.9825 16.0354Z" fill="#979797"/>
<path fill-rule="evenodd" clip-rule="evenodd" d="M35.1924 0.30749C35.0038 0.111047 34.7453 0 34.4729 0H28.0205L23.0121 4.49629C22.2663 4.58964 21.6212 4.70375 21.107 4.842C18.136 5.6415 10.639 10.57 10.639 10.57C10.639 10.57 2.39053 11.8475 0.817035 15.6095C0.817035 15.6095 0.138035 16.006 0.0145348 17.0225C-0.0489652 17.5455 0.106035 18.3395 0.277035 19.005C0.464535 19.733 1.06803 20.281 1.81053 20.3965L5.39053 20.9575C5.33703 20.762 5.29253 20.5635 5.26653 20.3585C5.24403 20.1815 5.22903 20.0005 5.22903 19.815C5.22903 17.4335 7.16653 15.4965 9.54853 15.4965C11.931 15.4965 13.8685 17.4335 13.8685 19.815C13.8685 19.9395 13.8605 20.0615 13.8505 20.1825C13.8145 20.6045 13.7165 21.008 13.567 21.3865L13.988 21.409L37.772 20.7655C37.7415 20.6315 37.7175 20.4965 37.6995 20.3585C37.6765 20.1815 37.6625 20.0005 37.6625 19.815C37.6625 17.4335 39.6 15.4965 41.9815 15.4965C44.364 15.4965 46.3015 17.4335 46.3015 19.815C46.3015 19.9395 46.2935 20.0615 46.283 20.1825C46.2786 20.2368 46.2707 20.29 46.2629 20.3433L46.258 20.3764L46.252 20.419L48.3045 20C49.151 19.827 49.75 19.07 49.72 18.2055L49.5455 12.9695C49.5175 12.1345 49.2875 11.319 48.876 10.5925L46.161 5.802C45.716 5.0175 44.9005 4.5155 44 4.47C42.8376 4.41175 41.0615 4.33046 38.9879 4.26139L35.1924 0.30749ZM35.9574 4.17704C34.3628 4.10284 32.4996 4.0343 31.2554 4.04663C30.4443 4.05467 29.3265 4.10273 28.1755 4.16482C30.6639 4.10027 33.4055 4.12081 35.9574 4.17704ZM36.404 10.8105L35.8575 5.355C33.268 5.2965 30.469 5.271 28.017 5.3275V11.1535L36.404 10.8105ZM14.6935 11.5435L13.864 11.59C13.6385 11.6025 13.432 11.4655 13.356 11.2525C13.28 11.0405 13.3535 10.804 13.535 10.6705C14.0225 10.3145 14.6195 9.889 15.2845 9.4395V10.8315C14.8795 11.174 14.6935 11.5435 14.6935 11.5435ZM16.6643 10.2773L16.6643 10.2773C16.6915 10.2725 16.7187 10.2677 16.749 10.2665C18.221 10.2115 18.471 11.5435 18.471 11.5435L25.677 11.249V5.415C23.977 5.5075 22.609 5.6625 21.859 5.905C20.211 6.4385 18.2945 7.503 16.6035 8.575V10.2865C16.6246 10.2844 16.6444 10.2809 16.6642 10.2773L16.6643 10.2773ZM45.884 9.7375C45.6325 10.1745 45.1745 10.452 44.671 10.473L38.745 10.715L38.214 5.418C40.663 5.4925 42.709 5.5845 43.7455 5.6405C44.225 5.666 44.6575 5.9425 44.881 6.3675L45.9095 8.319C46.145 8.7655 46.135 9.3015 45.884 9.7375Z" fill="#979797"/>
</svg>
