<svg width="30" height="24" viewBox="0 0 30 24" fill="none" xmlns="http://www.w3.org/2000/svg">
<path fill-rule="evenodd" clip-rule="evenodd" d="M29.343 20.8333V2.5C29.343 1.11979 28.2558 0 26.9157 0H2.64241C1.30233 0 0.215088 1.11979 0.215088 2.5V20.8333C0.215088 22.2135 1.30233 23.3333 2.64241 23.3333H26.9157C28.2558 23.3333 29.343 22.2135 29.343 20.8333ZM24.4581 12.7239C24.3721 12.3177 23.9878 10.3802 23.9878 10.3802L23.8462 9.68225C23.7945 9.83683 23.7229 10.0405 23.6666 10.2005L23.6666 10.2006L23.6665 10.2009L23.6664 10.201C23.6128 10.3534 23.5733 10.4659 23.5782 10.4583C23.5782 10.4583 22.936 12.2604 22.7691 12.7239H24.4581ZM7.92701 15.5833L11.123 7.5H8.97379L6.98642 13.0208L6.76897 11.901L6.061 8.18229C5.94469 7.66667 5.58565 7.52083 5.14064 7.5H1.86881L1.83341 7.66146C2.63241 7.86979 3.34543 8.17188 3.96744 8.55208L5.77782 15.5833H7.92701ZM13.9749 7.5L12.7006 15.5938H10.6728L11.9421 7.5H13.9749ZM19.7754 12.948C19.7855 12.0261 19.2394 11.323 18.0712 10.7448C17.3582 10.375 16.9233 10.125 16.9233 9.74483C16.9334 9.40108 17.2924 9.04692 18.0914 9.04692C18.7539 9.03129 19.2394 9.19275 19.6035 9.35421L19.7855 9.44275L20.0636 7.69275C19.6641 7.53129 19.027 7.349 18.2431 7.349C16.2355 7.349 14.8247 8.45317 14.8145 10.0261C14.7994 11.1875 15.8259 11.8334 16.5946 12.224C17.3784 12.6198 17.6464 12.8802 17.6464 13.2292C17.6363 13.7709 17.0093 14.0209 16.4277 14.0209C15.6186 14.0209 15.1837 13.8907 14.5212 13.5886L14.2532 13.4584L13.97 15.2761C14.4454 15.5 15.3253 15.698 16.2355 15.7084C18.3696 15.7136 19.7602 14.625 19.7754 12.948ZM25.2772 7.5L26.9156 15.5938H25.0344C25.0344 15.5938 24.8524 14.6667 24.7917 14.3802H22.1823C22.1065 14.5938 21.7576 15.5938 21.7576 15.5938H19.6235L22.6425 8.17188C22.8498 7.64583 23.219 7.5 23.7045 7.5H25.2772Z" fill="black"/>
</svg>
