<svg width="25" height="25" viewBox="0 0 25 25" fill="none" xmlns="http://www.w3.org/2000/svg">
<circle cx="12.5" cy="12.5" r="12.5" fill="#20B038"/>
<path d="M6.5937 18.3257L7.32469 15.6598L7.37986 15.4586L7.27567 15.2779C6.72741 14.3268 6.439 13.2482 6.43939 12.1504V12.1502C6.43939 8.69997 9.25036 5.89209 12.6975 5.89209C14.3742 5.89209 15.9425 6.54421 17.1247 7.72638C18.3063 8.90808 18.9557 10.4796 18.9557 12.1536C18.9557 15.6038 16.1447 18.4117 12.6975 18.4117H12.6942C11.6467 18.4117 10.6176 18.1475 9.70349 17.65L9.52934 17.5552L9.33757 17.6056L6.5937 18.3257Z" stroke="white"/>
<path d="M10.9486 9.21959C10.8176 8.92749 10.6799 8.92075 10.5558 8.91741C10.4551 8.91406 10.3376 8.91406 10.22 8.91406C10.1026 8.91406 9.91451 8.9577 9.75339 9.13225C9.59221 9.30687 9.14233 9.72988 9.14233 10.5927C9.14233 11.4521 9.77016 12.2847 9.85744 12.4022C9.94472 12.5197 11.0694 14.3427 12.8454 15.0444C14.3226 15.6286 14.6248 15.511 14.9437 15.4808C15.266 15.4506 15.9777 15.0578 16.1254 14.6482C16.2698 14.2387 16.2698 13.8895 16.2261 13.8156C16.1825 13.7417 16.065 13.6982 15.8904 13.6108C15.7158 13.5235 14.8564 13.1005 14.6953 13.0401C14.5341 12.9797 14.4166 12.9528 14.3025 13.1274C14.1849 13.302 13.8492 13.6948 13.7485 13.8123C13.6478 13.9298 13.5437 13.9432 13.3691 13.8559C13.1946 13.7687 12.6305 13.584 11.9625 12.9864C11.4421 12.5231 11.0896 11.949 10.9888 11.7744C10.8881 11.5999 10.9788 11.5058 11.0661 11.4186C11.1433 11.3413 11.2406 11.2138 11.328 11.1131C11.4152 11.0123 11.4454 10.9385 11.5025 10.821C11.5596 10.7035 11.5327 10.6028 11.4891 10.5155C11.4454 10.4282 11.103 9.56535 10.9486 9.21959Z" fill="white"/>
</svg>
